<svg width="300" height="40" viewBox="0 0 300 40" fill="none" xmlns="http://www.w3.org/2000/svg">
    <g clip-path="url(#25ugiq06ya)" fill="#1a2b3c">
        <path d="M61.62 12.34h-7.275V6.994h21.259v5.346h-7.275v19.502h-6.706V12.34h-.002zM78.446 6.996h6.731v9.601h7.746v-9.6h6.757v24.847h-6.757V21.92h-7.746v9.924h-6.73V6.996zM107.992 31.842c-.668 0-1.139-.025-1.484-.05a4.86 4.86 0 0 1-.989-.2c-1.088-.296-1.856-.866-2.326-1.682-.471-.816-.717-1.98-.717-3.465V12.116c0-1.014.099-1.83.297-2.425.198-.595.496-1.113.966-1.535.768-.694 1.757-1.065 2.969-1.139.247-.025.717-.025 1.411-.025h13.389v5.346h-10.247c-.816 0-1.36.147-1.634.444-.272.298-.422.867-.422 1.734v2.227h12.227v5.346h-12.227v2.475c0 .544.048.966.147 1.213.125.272.298.445.57.544.272.099.693.147 1.263.147h10.32v5.372h-13.513v.002zM124.548 6.996h13.539c1.238 0 2.351.148 3.317.47.989.298 1.807.743 2.45 1.338.643.594 1.139 1.337 1.485 2.201.346.867.521 1.881.521 3.02 0 1.632-.346 2.994-1.014 4.083a8.211 8.211 0 0 1-.595.84 8.689 8.689 0 0 1-.915.794c.569.323.991.643 1.286.989.323.322.544.742.742 1.212.298.743.47 1.51.496 2.252 0 .173 0 .346.025.52v7.127h-6.731v-4.924c0-.717-.125-1.386-.397-2.029a3.831 3.831 0 0 0-1.039-1.535c-.445-.371-.915-.643-1.459-.79-.519-.148-1.264-.224-2.204-.224h-2.771v9.504h-6.731V6.996h-.005zm12.423 9.973c.816 0 1.385-.173 1.708-.519.323-.346.496-.966.496-1.83 0-.791-.173-1.386-.519-1.734-.346-.371-.892-.544-1.634-.544h-5.743v4.629h5.692v-.002zM148.947 6.996h10.221l4.7 13.735h.049l4.628-13.735h10.222v24.848h-6.732V15.436h-.048l-4.776 14.082c-.222.643-.471 1.162-.717 1.485-.247.346-.544.57-.941.694-.371.124-.915.198-1.583.198-.669 0-1.188-.025-1.485-.1a2.212 2.212 0 0 1-.867-.444 3.498 3.498 0 0 1-.422-.422 4.99 4.99 0 0 1-.297-.52c-.099-.2-.224-.545-.371-.99l-4.827-14.032h-.049v16.457h-6.705V6.996zM206.362 25.433c-.518 1.658-1.337 3.043-2.425 4.134a9.43 9.43 0 0 1-2.476 1.782c-.94.445-2.005.79-3.192 1.014-1.213.246-2.55.346-4.083.346-.989 0-1.929-.051-2.821-.15a16.32 16.32 0 0 1-2.425-.519 9.082 9.082 0 0 1-2.004-.89 9.033 9.033 0 0 1-1.657-1.238 9.67 9.67 0 0 1-1.93-2.55c-.518-.94-.892-2.028-1.138-3.217-.247-1.213-.371-2.55-.371-4.009 0-1.535.124-2.944.345-4.28.247-1.312.595-2.477 1.065-3.516.471-1.014 1.04-1.93 1.734-2.672.966-1.04 2.227-1.807 3.762-2.326 1.535-.519 3.416-.768 5.592-.768 1.609 0 2.969.1 4.083.298 1.113.198 2.105.519 2.946.966.841.42 1.634 1.014 2.377 1.756.79.816 1.459 1.683 1.954 2.649.496.94.893 2.005 1.114 3.193.247 1.212.371 2.55.371 4.082 0 2.278-.272 4.256-.816 5.915h-.005zm-6.408-9.428c-.224-.989-.643-1.881-1.286-2.623-.422-.519-.992-.867-1.658-1.114-.668-.223-1.535-.322-2.598-.322-1.955 0-3.34.47-4.133 1.459a6.006 6.006 0 0 0-.941 1.609 11.005 11.005 0 0 0-.544 2.128c-.124.793-.173 1.682-.173 2.671 0 1.485.148 2.748.471 3.762.297 1.015.79 1.856 1.436 2.525.841.841 2.153 1.263 3.935 1.263 1.014 0 1.906-.148 2.672-.422a4.578 4.578 0 0 0 1.855-1.337c.471-.595.842-1.36 1.065-2.278.224-.915.346-2.028.346-3.34 0-1.41-.147-2.748-.445-3.986l-.002.005zM216.899 6.996h6.732v12.128h.048l8.315-12.128h7.425l-8.488 12.4 8.513 12.448h-7.498l-8.267-11.879h-.048v11.88h-6.732V6.995zM241.542 6.996h6.731v24.848h-6.731V6.996zM259.869 6.996l7.102 11.46h.048V6.995h6.732v24.848h-4.579c-.742 0-1.311-.074-1.756-.221-.42-.125-.816-.397-1.213-.816-.371-.397-.841-1.04-1.385-1.932l-6.607-10.715h-.051v13.686h-6.705V6.996h8.414zM299.636 16.994v14.848h-9.429c-1.039 0-1.881-.025-2.524-.05a24.252 24.252 0 0 1-1.731-.2 10.9 10.9 0 0 1-1.634-.37c-1.287-.371-2.4-.867-3.341-1.51a8.289 8.289 0 0 1-2.326-2.402 9.851 9.851 0 0 1-1.36-3.292c-.297-1.238-.445-2.672-.445-4.306 0-4.505 1.04-7.771 3.119-9.825.867-.867 1.907-1.535 3.168-2.029 1.263-.495 2.648-.767 4.184-.84.32 0 .841-.026 1.606-.026h10.766v5.346h-10.567c-.768 0-1.312.025-1.658.073a3.53 3.53 0 0 0-.94.199c-.618.22-1.164.643-1.635 1.212a5.415 5.415 0 0 0-.989 2.006 9.482 9.482 0 0 0-.223 1.41 19.927 19.927 0 0 0 .124 4.53c.125.841.298 1.558.544 2.153.247.57.57 1.04.966 1.386.445.421 1.014.716 1.757.892.717.198 1.708.272 2.943.272h2.921v-4.332H288.7v-5.147h10.938l-.002.002zM35.415 3.354a.458.458 0 0 0-.025 0h.025z"/>
        <path d="m38.188 0-.136.373c-.466 1.22-1.346 1.82-2.662 1.838-1.298-.019-2.158-.625-2.628-1.84L32.623 0h-4.008l-.139.369c-.477 1.22-1.35 1.823-2.655 1.842h-.023c-1.305-.026-2.163-.625-2.642-1.842L23.017 0H18.7l-.13.392c-.405 1.176-1.279 1.81-2.496 1.823h-.136c-1.224-.071-2.005-.661-2.409-1.82L13.4.001H9.262l-.133.38c-.445 1.202-1.31 1.815-2.582 1.831h-.035c-1.272-.03-2.12-.632-2.559-1.828L3.82.002H0V34.53a2.841 2.841 0 0 0 2.833 2.854l36.238.02a2.87 2.87 0 0 0 2.872-2.856V0h-3.755zm2.614 34.548c0 .94-.781 1.71-1.731 1.713l-36.238-.02c-.943 0-1.69-.76-1.692-1.714V1.141h1.881c.623 1.38 1.93 2.218 3.481 2.213h.04c1.558.016 2.876-.827 3.505-2.213h2.54c.58 1.332 1.808 2.167 3.302 2.213.062.002.122.002.182.002a3.654 3.654 0 0 0 3.432-2.215h2.737c.654 1.388 1.975 2.22 3.552 2.213h.025c1.58.016 2.91-.818 3.569-2.213h2.455c.632 1.346 1.892 2.18 3.412 2.21H35.389a.592.592 0 0 0 .026 0c1.57.01 2.907-.815 3.557-2.212h1.83v33.409z"/>
        <path d="M26.425 13.195c-.173.203-.086.678-.086.678v18.26H15.88v-18.26s.004-.491-.197-.678c-.207-.194-.714-.14-.714-.14H4.17V7.101h34.037v5.952H27.21s-.583-.097-.784.141h-.002z"/>
        <path d="M13.043 26.19v5.954H4.17V14.267h8.873v5.927l2.116-.005v5.996l-2.116.004zM27.077 20.152h.692s.716.092 1.15-.302c.56-.51.44-1.669.44-1.669v-3.884h8.636s.444 4.974-1.503 6.945c-2 2.02-7.13 1.503-7.13 1.503v.964s5.13-.516 7.13 1.503c1.95 1.971 1.503 6.946 1.503 6.946h-8.636v-3.885s.08-1.12-.44-1.669c-.581-.615-1.224-.412-1.224-.412h-.618V20.15v.002zM42.637 37.988h.263c.178 0 .256.06.256.177 0 .134-.078.187-.27.178h-.249v-.358.003zm-.355-.282v1.478h.364v-.565h.229c.22 0 .262.053.285.358.007.117.014.147.044.207h.341c-.007-.02-.013-.02-.013-.053-.007-.037-.014-.06-.014-.08 0-.015-.007-.038-.007-.081-.014-.245-.05-.371-.113-.425l-.072-.06.072-.06c.092-.103.122-.17.122-.287 0-.282-.194-.432-.542-.432h-.696zm.593-.422c.633 0 1.138.526 1.138 1.188 0 .661-.514 1.187-1.138 1.187-.625 0-1.148-.535-1.148-1.187 0-.653.514-1.188 1.148-1.188zm0-.34c-.821 0-1.49.682-1.49 1.53s.669 1.528 1.49 1.528c.82 0 1.482-.682 1.482-1.528s-.662-1.53-1.482-1.53z"/>
    </g>
    <defs>
        <clipPath id="25ugiq06ya">
            <path fill="#1a2b3c" d="M0 0h299.684v40H0z"/>
        </clipPath>
    </defs>
</svg>
