<svg version="1.1" id="Layer_1" xmlns="http://www.w3.org/2000/svg" xmlns:xlink="http://www.w3.org/1999/xlink" x="0px" y="0px"
	 width="100%" viewBox="0 0 2617 719" enable-background="new 0 0 2617 719" xml:space="preserve">
<path fill="#FEFEFE" opacity="1.000000" stroke="none" 
	d="
M2037.000000,720.000000 
	C1358.000122,720.000000 679.500183,720.000000 1.000182,720.000000 
	C1.000121,480.333435 1.000121,240.666885 1.000061,1.000164 
	C437.166504,1.000000 873.333008,1.000000 1309.499512,1.000000 
	C1745.666138,1.000000 2181.832764,1.000000 2617.999512,1.000000 
	C2617.999512,240.666428 2617.999512,480.332855 2617.999756,719.999634 
	C2424.500000,720.000000 2231.000000,720.000000 2037.000000,720.000000 
M206.173874,105.538712 
	C167.686066,105.749481 129.198349,106.016060 90.710320,106.073471 
	C87.343971,106.078491 85.641808,107.389336 83.990364,109.956108 
	C72.912636,127.173752 61.727688,144.322372 50.589417,161.501114 
	C44.556492,170.805786 38.547039,180.125671 31.996630,190.259186 
	C93.641747,190.259186 154.337265,190.259186 215.377609,190.259186 
	C222.086746,354.408081 228.773819,518.017334 235.465240,681.732483 
	C236.958466,681.848938 237.932114,681.991211 238.905807,681.991394 
	C289.402771,682.002258 339.899811,681.967468 390.396484,682.082642 
	C393.503937,682.089722 394.647186,680.936462 395.692139,678.256104 
	C408.370300,645.736450 421.167480,613.263123 433.943634,580.781677 
	C488.572418,441.896210 543.207336,303.013153 597.829712,164.125168 
	C602.116760,153.224533 602.079834,153.204102 613.883240,153.168350 
	C651.043884,153.055801 688.204529,152.945114 725.365173,152.841187 
	C732.146912,152.822220 738.928772,152.838486 745.655029,152.838486 
	C754.396240,116.609985 762.902100,81.357101 771.546570,45.529545 
	C769.188293,45.529545 767.877625,45.529533 766.566956,45.529545 
	C682.405334,45.530308 598.243591,45.563980 514.082214,45.425770 
	C510.241333,45.419464 509.059753,46.997986 507.847656,50.136307 
	C459.353333,175.697144 410.775085,301.225586 362.207672,426.758179 
	C360.719635,430.604248 359.231934,434.450439 357.744080,438.296570 
	C357.432495,438.205048 357.120911,438.113495 356.809326,438.021973 
	C352.747284,326.805939 348.685211,215.589951 344.629272,104.540985 
	C338.524048,104.540985 333.040680,104.516891 327.557556,104.545021 
	C299.398712,104.689476 271.239716,104.814934 243.081284,105.015800 
	C231.091431,105.101334 219.102798,105.354393 206.173874,105.538712 
M2349.500000,228.162613 
	C2334.200684,228.162613 2318.901367,228.162613 2303.411865,228.162613 
	C2271.193848,362.562592 2239.064941,496.589020 2206.844238,631.000305 
	C2208.409180,631.000305 2209.394043,631.000244 2210.378906,631.000244 
	C2253.530518,631.000549 2296.695801,631.645752 2339.828125,630.731689 
	C2361.706055,630.268005 2383.623779,627.715210 2405.336426,624.742004 
	C2420.691406,622.639465 2434.773682,616.594788 2444.959961,603.760315 
	C2457.045166,588.533203 2463.522217,570.805725 2468.001465,552.279602 
	C2485.812012,478.616486 2503.444336,404.910217 2521.085449,331.206238 
	C2525.726562,311.815460 2531.278076,292.596954 2531.052490,272.336914 
	C2530.810303,250.586426 2523.037598,240.414719 2501.873291,234.939224 
	C2480.409424,229.386154 2458.422119,228.599823 2436.468506,228.268463 
	C2407.818359,227.836044 2379.156738,228.162643 2349.500000,228.162613 
M2058.925049,629.745972 
	C2060.486572,630.166809 2062.047119,630.950256 2063.609863,630.954529 
	C2090.101807,631.026978 2116.594238,631.002380 2143.086426,630.999695 
	C2150.232910,630.998962 2157.379395,630.999634 2164.552246,630.999634 
	C2165.048828,629.299561 2165.520752,627.905273 2165.862549,626.479858 
	C2175.316895,587.046143 2184.689941,547.592712 2194.239746,508.182129 
	C2197.422607,495.045898 2200.469482,481.956970 2199.214844,468.277740 
	C2198.148926,456.657562 2192.863281,447.641663 2182.580811,442.060577 
	C2176.926758,438.991669 2170.827148,436.743805 2165.021729,434.167084 
	C2166.049072,433.825806 2167.411377,433.305420 2168.810303,432.918427 
	C2195.147705,425.633972 2213.347656,409.174316 2221.909668,383.334900 
	C2228.326904,363.968536 2233.218018,344.083405 2238.426758,324.333801 
	C2242.754150,307.925507 2246.688721,291.420441 2246.497559,274.235870 
	C2246.245605,251.572876 2238.394287,241.010300 2216.500244,235.070129 
	C2195.437500,229.355530 2173.759277,228.471207 2152.144043,228.275803 
	C2109.493408,227.890213 2066.836670,228.159592 2024.182495,228.158142 
	C2022.548706,228.158081 2020.914795,228.158142 2018.979004,228.158142 
	C1986.796753,362.512054 1954.692261,496.540802 1922.550049,630.727417 
	C1958.235840,630.727417 1993.150757,630.727417 2028.296753,630.727417 
	C2033.236572,610.167053 2038.114502,589.819824 2043.015259,569.478027 
	C2050.567383,538.132080 2058.110840,506.783966 2065.773193,475.464905 
	C2066.130371,474.005249 2067.648682,471.661499 2068.555908,471.693939 
	C2074.499023,471.906494 2080.503662,472.243561 2086.326416,473.374329 
	C2090.676514,474.219116 2092.875244,477.807281 2092.926025,482.271881 
	C2092.956055,484.911926 2092.831787,487.635132 2092.223389,490.189087 
	C2081.208496,536.426270 2070.108887,582.643372 2058.925049,629.745972 
M1082.826782,453.237610 
	C1100.745605,378.424652 1118.664551,303.611694 1136.595581,228.748474 
	C1135.434937,228.445679 1134.965576,228.216400 1134.495850,228.215912 
	C1105.662964,228.185760 1076.829956,228.130951 1047.998169,228.300262 
	C1046.675659,228.308029 1044.497681,230.135651 1044.173950,231.469070 
	C1030.683838,287.048401 1017.362793,342.668762 1004.013672,398.282318 
	C1001.579834,408.421783 999.115967,418.554047 996.666016,428.689636 
	C996.283020,428.641846 995.900024,428.594086 995.516968,428.546295 
	C994.558289,361.883331 993.599548,295.220398 992.638672,228.405334 
	C959.584534,228.405334 926.982117,228.405334 894.220459,228.405334 
	C862.075317,362.595337 829.977966,496.585938 797.819763,630.830688 
	C828.363525,630.830688 858.494080,630.830688 888.862122,630.830688 
	C904.329651,566.449402 919.776184,502.155243 935.222717,437.861084 
	C935.514160,437.908630 935.805664,437.956177 936.097107,438.003693 
	C937.850830,502.197052 939.604614,566.390381 941.362305,630.727173 
	C974.425598,630.727173 1007.156067,630.727173 1040.078491,630.727173 
	C1054.286865,571.685852 1068.443481,512.859741 1082.826782,453.237610 
M1562.089966,627.696777 
	C1588.306396,623.288452 1604.751953,607.239624 1614.005249,583.241699 
	C1618.296753,572.111450 1622.133423,560.702332 1624.941650,549.120239 
	C1646.795166,458.989929 1668.344482,368.785858 1689.995972,278.606567 
	C1693.985229,261.990601 1698.010864,245.383408 1702.103882,228.423508 
	C1666.579224,228.423508 1631.510376,228.423508 1596.376709,228.423508 
	C1595.889404,230.212418 1595.412964,231.798126 1595.026001,233.405380 
	C1569.352905,340.055786 1543.690308,446.708771 1518.016357,553.359009 
	C1515.176270,565.157104 1506.562866,570.175171 1494.734985,567.205933 
	C1490.582275,566.163330 1488.184570,563.580566 1488.113647,559.572327 
	C1488.041138,555.467346 1488.436890,551.238892 1489.393066,547.247803 
	C1512.467407,450.925690 1535.648438,354.629089 1558.796997,258.324707 
	C1561.182251,248.401657 1563.483887,238.458542 1565.871704,228.323517 
	C1530.318481,228.323517 1495.352783,228.323517 1460.206665,228.323517 
	C1459.777466,229.854248 1459.330444,231.271637 1458.983154,232.713074 
	C1441.469116,305.421692 1423.899292,378.116943 1406.483276,450.849030 
	C1397.349243,488.994904 1388.196777,527.141541 1379.709961,565.433533 
	C1377.651245,574.722839 1377.113159,584.660706 1377.757690,594.172913 
	C1379.106323,614.069885 1385.901611,622.475586 1405.430908,626.659241 
	C1421.453735,630.091614 1437.916260,632.209167 1454.284546,633.139648 
	C1490.074463,635.174377 1525.857178,634.690918 1562.089966,627.696777 
M1268.543091,300.188751 
	C1269.474121,298.817078 1270.258057,297.311615 1271.362183,296.097382 
	C1275.708618,291.317535 1284.783813,289.866913 1291.327393,292.893646 
	C1297.727783,295.854126 1296.838989,301.631500 1295.879517,306.764832 
	C1294.141235,316.065155 1291.715576,325.238525 1289.520996,334.451599 
	C1287.122559,344.520386 1284.660767,354.574097 1282.194702,364.766296 
	C1317.789062,364.766296 1352.743530,364.766296 1387.807861,364.766296 
	C1392.628052,344.691772 1397.425049,324.823822 1402.163452,304.941986 
	C1405.306641,291.753937 1406.813843,278.400665 1406.041504,264.823914 
	C1405.114746,248.534653 1397.871338,239.008881 1382.385498,233.906082 
	C1380.020264,233.126709 1377.615845,232.438095 1375.191040,231.873001 
	C1354.460815,227.041916 1333.340576,226.192505 1312.185425,225.927780 
	C1283.198120,225.565063 1254.300293,226.234909 1225.552002,230.920715 
	C1199.696045,235.135086 1181.315308,248.489410 1171.561035,272.815918 
	C1167.061646,284.036530 1162.963867,295.547150 1160.096191,307.271729 
	C1142.799194,377.988922 1125.846436,448.790680 1108.927368,519.599731 
	C1104.065186,539.949036 1098.040527,560.053650 1096.606445,581.136536 
	C1094.715576,608.932617 1103.988159,622.945374 1129.442505,629.672913 
	C1129.924194,629.800293 1130.413940,629.897705 1130.901001,630.004883 
	C1154.103271,635.113586 1177.502319,634.775330 1200.972290,632.552246 
	C1224.218506,630.350342 1244.723022,621.714050 1262.420776,606.450562 
	C1263.104736,605.860779 1263.924805,605.429077 1264.963379,604.735474 
	C1268.767822,612.814514 1272.298340,620.505554 1276.051636,628.086365 
	C1276.656982,629.309143 1278.243530,630.860901 1279.394043,630.875488 
	C1294.186646,631.063538 1308.982422,630.999756 1323.838013,630.999756 
	C1340.469604,561.839661 1356.998901,493.105408 1373.569458,424.199615 
	C1331.289795,424.199615 1289.883911,424.199615 1248.463989,424.199615 
	C1243.266602,445.940552 1238.152344,467.334229 1232.890259,489.346436 
	C1239.690552,489.346436 1245.755981,489.346436 1252.095337,489.346436 
	C1251.871704,490.820374 1251.797485,491.805969 1251.567383,492.753723 
	C1246.743042,512.622375 1241.492310,532.399475 1237.224854,552.386658 
	C1234.883301,563.353333 1226.655518,568.604980 1214.392456,566.826660 
	C1209.679688,566.143311 1206.653076,563.108765 1206.974487,558.288025 
	C1207.347778,552.689941 1208.210815,547.058838 1209.516357,541.598633 
	C1224.938965,477.094727 1240.435425,412.608276 1256.032104,348.146149 
	C1259.859131,332.328247 1264.118896,316.614990 1268.543091,300.188751 
M1913.222046,349.850006 
	C1913.413818,348.362976 1913.668335,346.881012 1913.788086,345.388184 
	C1916.144531,316.024292 1918.499146,286.660278 1920.821411,257.293671 
	C1921.577393,247.733063 1922.240723,238.165115 1922.978760,228.162460 
	C1920.849854,228.162460 1919.216553,228.162415 1917.583374,228.162476 
	C1878.595703,228.163834 1839.607788,228.245361 1800.621094,228.053925 
	C1796.286377,228.032623 1794.358398,229.243561 1792.730103,233.336807 
	C1741.019287,363.326172 1689.156006,493.254822 1637.329346,623.198120 
	C1636.364868,625.616150 1635.565552,628.100037 1634.580811,630.856384 
	C1667.598755,630.856384 1700.056152,630.856384 1732.604736,630.856384 
	C1733.074219,629.708679 1733.565796,628.668152 1733.932861,627.585388 
	C1741.989014,603.825012 1750.101440,580.083252 1757.999634,556.270386 
	C1759.163696,552.760559 1760.614014,551.157471 1764.571167,551.352905 
	C1771.718262,551.705994 1778.895020,551.452698 1786.059448,551.452698 
	C1791.149780,551.452698 1796.240112,551.452698 1801.726562,551.452698 
	C1798.086670,578.355530 1794.552979,604.473450 1791.002441,630.715393 
	C1824.490112,630.715393 1857.561768,630.715393 1890.804565,630.715393 
	C1892.207520,613.550415 1893.618774,596.655701 1894.963379,579.755676 
	C1897.762573,544.577637 1900.511475,509.395538 1903.308716,474.217377 
	C1906.580566,433.070679 1909.882324,391.926331 1913.222046,349.850006 
M629.969971,566.486328 
	C631.351196,562.391418 632.601807,558.244568 634.197510,554.234985 
	C634.644348,553.112183 636.097229,551.620544 637.106201,551.606995 
	C650.248657,551.430542 663.394287,551.489868 677.022766,551.489868 
	C673.413025,578.189819 669.864319,604.437805 666.298157,630.815125 
	C699.789795,630.815125 732.742615,630.815125 766.142578,630.815125 
	C776.874878,496.694916 787.594849,362.728516 798.340942,228.435425 
	C755.272949,228.435425 712.840637,228.435425 670.070923,228.435425 
	C616.684937,362.357910 563.237061,496.435638 509.648346,630.866699 
	C542.782776,630.866699 575.245728,630.866699 608.029541,630.866699 
	C615.272400,609.659607 622.514709,588.454163 629.969971,566.486328 
M2195.919434,75.264610 
	C2189.558594,100.706139 2183.197754,126.147667 2176.777588,151.827057 
	C2186.269775,151.827057 2195.393799,151.827057 2204.633057,151.827057 
	C2207.752686,139.127762 2210.901123,126.581833 2213.872559,113.994179 
	C2214.484863,111.400215 2215.051758,109.545074 2218.335449,110.335938 
	C2221.403564,111.074936 2221.802734,112.995705 2221.148682,115.607193 
	C2220.907227,116.573067 2220.727783,117.554543 2220.487549,118.520851 
	C2217.742432,129.564636 2214.990723,140.606888 2212.184570,151.876648 
	C2221.642578,151.876648 2230.620361,151.876648 2240.008301,151.876648 
	C2242.816406,140.487442 2245.629883,129.073318 2248.445068,117.659653 
	C2250.706543,108.489365 2249.645996,105.643921 2243.111572,101.304298 
	C2246.682861,97.759918 2252.047363,94.698174 2253.808350,90.219391 
	C2257.535889,80.739761 2260.095703,70.639435 2261.775391,60.567020 
	C2263.125244,52.472149 2259.963623,48.755554 2251.796631,48.232929 
	C2235.584229,47.195465 2219.315430,47.033623 2202.998291,46.507607 
	C2200.535400,56.409760 2198.291748,65.429306 2195.919434,75.264610 
M817.877441,48.074856 
	C809.242188,82.553604 800.606934,117.032356 791.906555,151.771149 
	C800.087891,151.771149 807.976562,151.771149 815.941650,151.771149 
	C819.951050,135.939102 823.910217,120.305359 827.869385,104.671608 
	C828.356506,104.748016 828.843628,104.824425 829.330750,104.900833 
	C829.330750,120.488457 829.330750,136.076080 829.330750,151.829102 
	C838.235168,151.829102 846.524597,151.829102 855.217651,151.829102 
	C863.876160,117.040070 872.546143,82.204971 881.247498,47.243706 
	C872.825073,47.243706 865.044617,47.243706 857.332031,47.243706 
	C853.090637,64.017441 848.912048,80.542717 844.733459,97.067993 
	C844.372803,97.016815 844.012146,96.965645 843.651489,96.914467 
	C843.651489,80.333755 843.651489,63.753033 843.651489,47.262672 
	C834.843079,47.262672 826.531494,47.262672 817.877441,48.074856 
M2572.996094,89.559288 
	C2576.472900,75.496437 2579.949707,61.433582 2583.474365,47.176430 
	C2574.899170,47.176430 2567.102295,47.176430 2559.260986,47.176430 
	C2555.133545,63.839947 2551.044678,80.346573 2546.955811,96.853195 
	C2546.613525,96.808350 2546.270996,96.763504 2545.928711,96.718658 
	C2545.928711,80.220078 2545.928711,63.721493 2545.928711,47.120331 
	C2537.151367,47.120331 2528.861816,47.120331 2520.256348,47.120331 
	C2511.584717,81.988655 2502.923584,116.815147 2494.232666,151.761932 
	C2502.443115,151.761932 2510.201416,151.761932 2518.134277,151.761932 
	C2521.920898,136.448227 2525.662598,121.316292 2529.404053,106.184357 
	C2529.897949,106.221161 2530.391602,106.257965 2530.885254,106.294769 
	C2530.885254,121.477852 2530.885254,136.660934 2530.885254,151.784256 
	C2540.304688,151.784256 2548.755127,151.784256 2557.386230,151.784256 
	C2562.572510,131.208237 2567.718018,110.792564 2572.996094,89.559288 
M1708.974854,112.427574 
	C1705.712402,125.456657 1702.449829,138.485733 1699.119385,151.786270 
	C1708.506836,151.786270 1717.607666,151.786270 1727.021606,151.786270 
	C1730.417114,138.038773 1733.828491,124.226990 1737.212646,110.524864 
	C1743.679932,110.214218 1744.595825,111.204468 1743.251831,116.652054 
	C1742.258179,120.679932 1741.234741,124.700493 1740.251099,128.730804 
	C1738.387695,136.365723 1736.543335,144.005280 1734.690796,151.643921 
	C1744.390137,151.643921 1753.464233,151.643921 1762.540649,151.643921 
	C1765.153809,140.823242 1767.553101,130.304016 1770.261230,119.864906 
	C1772.291382,112.039574 1774.155151,104.484444 1763.484497,100.456635 
	C1771.108521,98.287392 1775.896606,94.030670 1777.874268,87.387436 
	C1780.377930,78.977966 1782.790161,70.474930 1784.270630,61.845623 
	C1785.797852,52.943489 1782.555664,48.529190 1773.546875,48.179928 
	C1757.466797,47.556519 1741.345093,48.004486 1725.064453,48.004486 
	C1719.847412,68.785660 1714.472290,90.197159 1708.974854,112.427574 
M1491.251831,61.967899 
	C1491.964600,53.303925 1489.861938,48.984493 1482.539917,48.460232 
	C1465.840332,47.264542 1449.070801,47.048321 1432.498047,46.440342 
	C1423.566406,82.185020 1414.912109,116.819748 1406.170410,151.804108 
	C1415.818237,151.804108 1424.771118,151.804108 1433.937500,151.804108 
	C1437.433472,138.000107 1440.930054,124.193810 1444.399902,110.492767 
	C1450.826416,110.396156 1451.448120,111.055786 1450.197388,116.363083 
	C1447.427734,128.116364 1444.635986,139.864410 1441.807373,151.807831 
	C1451.167236,151.807831 1460.113037,151.807831 1469.368652,151.807831 
	C1472.028564,141.255661 1474.617065,130.798447 1477.309082,120.367928 
	C1479.352417,112.450897 1481.442749,104.592850 1470.339478,100.521439 
	C1478.174438,98.113785 1483.118896,93.834518 1485.104004,86.942757 
	C1487.399292,78.973564 1489.161255,70.850731 1491.251831,61.967899 
M1980.095337,54.606228 
	C1972.093384,86.962097 1964.091309,119.317978 1956.083130,151.698502 
	C1965.464355,151.698502 1974.566528,151.698502 1983.550903,151.698502 
	C1987.134399,137.605072 1990.638062,123.825500 1994.113403,110.157471 
	C2000.725098,110.825943 2001.349731,111.555298 1999.937378,117.426361 
	C1997.192871,128.834808 1994.291382,140.205521 1991.390503,151.850464 
	C2000.958862,151.850464 2009.917603,151.850464 2019.226929,151.850464 
	C2021.973999,140.680695 2024.859131,129.604599 2027.348877,118.440346 
	C2028.126343,114.954254 2028.797974,110.918198 2027.755127,107.706322 
	C2026.788452,104.729584 2023.467285,102.517387 2021.297363,100.096100 
	C2027.384399,98.373268 2032.395874,94.216415 2034.419189,87.622543 
	C2037.042480,79.074203 2039.507690,70.370071 2040.803833,61.551159 
	C2042.163208,52.302158 2038.884155,48.451664 2029.272827,48.109447 
	C2013.660889,47.553593 1998.014893,47.959621 1981.944946,47.959621 
	C1981.542480,49.372448 1980.912598,51.583797 1980.095337,54.606228 
M1177.943726,133.408524 
	C1185.089233,104.753807 1192.234741,76.099091 1199.447266,47.175594 
	C1191.080322,47.175594 1183.287354,47.175594 1175.343384,47.175594 
	C1171.401978,63.132023 1167.492920,78.957069 1163.583862,94.782120 
	C1163.165283,94.753593 1162.746582,94.725060 1162.327881,94.696533 
	C1162.327881,78.855225 1162.327881,63.013920 1162.327881,47.146179 
	C1153.215088,47.146179 1144.916382,47.146179 1136.285645,47.146179 
	C1127.566284,81.972221 1118.862427,116.736008 1110.084961,151.793701 
	C1118.265137,151.793701 1126.035889,151.793701 1133.945068,151.793701 
	C1137.922729,136.055161 1141.882446,120.387589 1145.842163,104.720016 
	C1146.363403,104.783539 1146.884521,104.847061 1147.405762,104.910583 
	C1147.405762,120.554459 1147.405762,136.198334 1147.405762,151.738571 
	C1156.510376,151.738571 1164.775024,151.738571 1173.204956,151.738571 
	C1174.768677,145.763885 1176.279297,139.992096 1177.943726,133.408524 
M2124.464111,65.041573 
	C2119.077637,86.463463 2113.629883,107.870399 2108.362549,129.321518 
	C2107.458252,133.004166 2107.000732,136.866364 2106.899170,140.660645 
	C2106.726318,147.130096 2108.903809,149.889557 2115.248291,150.995056 
	C2128.472168,153.299149 2141.739502,153.226227 2154.959473,150.809906 
	C2161.369629,149.638260 2165.777832,145.884796 2168.104736,139.840927 
	C2169.531494,136.134842 2170.890381,132.373367 2171.880859,128.533859 
	C2175.198975,115.671524 2178.457031,102.790985 2181.508057,89.863235 
	C2183.906982,79.698883 2186.496826,69.531647 2187.997559,59.219532 
	C2189.065674,51.882229 2186.680420,48.725960 2179.287842,47.977894 
	C2168.586182,46.894981 2157.751953,46.984852 2146.970947,46.861744 
	C2135.019043,46.725273 2127.657471,52.753166 2124.464111,65.041573 
M2437.136475,83.620735 
	C2434.902588,92.646194 2432.573486,101.649406 2430.460693,110.703171 
	C2428.199707,120.394554 2425.608887,130.055679 2424.177002,139.877991 
	C2423.164062,146.828079 2425.719482,150.181671 2432.709961,150.874634 
	C2443.247314,151.919235 2453.939209,152.318207 2464.514893,151.850677 
	C2479.285156,151.197708 2484.361572,146.460892 2488.032959,132.173965 
	C2491.918213,117.056221 2495.869873,101.954758 2499.623535,86.804268 
	C2501.698975,78.426033 2503.786133,70.022179 2505.216797,61.520313 
	C2506.762695,52.333237 2504.521484,48.483952 2495.505615,47.750874 
	C2483.470459,46.772270 2471.287842,47.090118 2459.193848,47.534256 
	C2450.960449,47.836609 2445.859375,53.176937 2443.438477,60.746807 
	C2441.115234,68.012222 2439.333740,75.450951 2437.136475,83.620735 
M1906.741211,57.365948 
	C1905.458984,60.948536 1903.885620,64.456444 1902.944092,68.126434 
	C1898.528809,85.338058 1894.204712,102.574348 1890.024414,119.844490 
	C1888.388184,126.604630 1886.685547,133.422409 1885.979492,140.312943 
	C1885.297974,146.964539 1887.855957,150.397873 1894.469238,150.861130 
	C1906.191040,151.682236 1918.001709,151.844467 1929.750854,151.486755 
	C1940.725464,151.152603 1946.720703,144.362106 1949.292847,134.044601 
	C1952.826904,119.869164 1956.623169,105.758446 1960.082397,91.565262 
	C1962.635620,81.089455 1965.219238,70.593483 1967.054443,59.979454 
	C1968.396240,52.219082 1966.121582,48.545090 1958.253418,48.000053 
	C1945.403076,47.109882 1932.436890,47.559860 1919.533081,47.921013 
	C1913.815674,48.081032 1909.741089,51.669247 1906.741211,57.365948 
M1072.283936,152.514847 
	C1074.938843,152.350769 1077.596436,152.223114 1080.248047,152.016602 
	C1095.197144,150.852295 1100.456543,146.483063 1104.123291,131.997726 
	C1107.502808,118.646629 1110.798706,105.274178 1114.093506,91.901772 
	C1116.474243,82.239746 1119.275269,72.648064 1121.011841,62.869259 
	C1122.998779,51.681122 1120.064819,47.933910 1108.914185,47.164310 
	C1099.482178,46.513325 1089.948364,46.347866 1080.516602,46.915592 
	C1065.974487,47.790924 1061.682495,51.522655 1057.929565,65.586891 
	C1054.080322,80.012070 1050.604492,94.537193 1046.995117,109.025970 
	C1044.829468,117.718857 1042.496704,126.378471 1040.642822,135.138474 
	C1038.324463,146.093658 1041.747559,150.750305 1052.899902,151.831161 
	C1059.011353,152.423477 1065.191162,152.310196 1072.283936,152.514847 
M1812.825073,141.247543 
	C1813.468750,147.764160 1815.047607,150.473312 1821.345459,150.871323 
	C1833.402588,151.633301 1845.532837,151.671921 1857.619019,151.399963 
	C1867.389648,151.180084 1873.073120,145.041718 1875.656372,136.139069 
	C1878.413940,126.635559 1880.633911,116.976067 1883.117798,107.270538 
	C1873.510254,107.270538 1864.408447,107.270538 1855.390259,107.270538 
	C1853.382446,115.108894 1851.391113,122.656662 1849.535645,130.237747 
	C1848.780273,133.324265 1847.337646,136.033142 1843.946655,134.771606 
	C1842.777832,134.336746 1841.973999,130.614929 1842.373779,128.677261 
	C1843.915527,121.202057 1846.033813,113.846748 1847.895508,106.436279 
	C1850.930908,94.354881 1853.932861,82.265076 1856.950928,70.179329 
	C1857.763428,66.925705 1858.380737,62.836449 1862.968994,64.044174 
	C1867.540527,65.247505 1864.615112,68.903938 1864.191772,71.448433 
	C1863.575806,75.150719 1862.510986,78.778313 1861.541992,82.838799 
	C1870.265137,82.838799 1878.415771,82.920471 1886.560669,82.742836 
	C1887.666992,82.718697 1889.504517,81.569809 1889.715576,80.647102 
	C1891.377075,73.383568 1893.261353,66.103287 1894.017456,58.719666 
	C1894.756714,51.500221 1892.687500,48.708904 1885.355591,47.983665 
	C1874.976196,46.956989 1864.457397,46.653614 1854.027954,46.983212 
	C1838.988892,47.458481 1833.806152,51.995995 1830.044312,66.664993 
	C1825.876831,82.915245 1821.799194,99.190643 1817.911743,115.509705 
	C1815.953979,123.727661 1814.503418,132.066467 1812.825073,141.247543 
M2039.098022,114.607689 
	C2036.024414,126.950104 2032.950806,139.292526 2029.836914,151.796844 
	C2039.391968,151.796844 2048.511475,151.796844 2057.629639,151.796844 
	C2060.565918,140.069870 2063.453613,128.536057 2066.311279,117.122292 
	C2072.704346,116.719070 2078.663086,116.363785 2084.618896,115.963028 
	C2094.872070,115.273117 2102.523926,110.827980 2105.364258,100.463448 
	C2108.739990,88.144157 2112.139893,75.799355 2114.678711,63.292942 
	C2116.745117,53.115929 2113.346191,48.501713 2103.056396,48.070187 
	C2087.464600,47.416317 2071.825195,47.899338 2055.673096,47.899338 
	C2050.337891,69.361137 2044.813599,91.582611 2039.098022,114.607689 
M2250.975098,142.443130 
	C2249.800293,145.487152 2248.625488,148.531158 2247.342285,151.856033 
	C2256.241699,151.856033 2264.524902,151.856033 2273.004883,151.856033 
	C2275.448975,144.948471 2277.869873,138.106445 2280.218994,131.467102 
	C2283.863281,131.467102 2287.103027,131.467102 2290.595947,131.467102 
	C2289.656006,138.429123 2288.759521,145.069122 2287.843750,151.852417 
	C2296.879883,151.852417 2305.335938,151.852417 2314.134521,151.852417 
	C2317.231689,116.923248 2320.318115,82.114555 2323.432129,46.995869 
	C2313.407715,46.995869 2304.096191,47.218288 2294.803955,46.887482 
	C2291.034424,46.753288 2289.341064,47.925205 2287.942627,51.401638 
	C2275.815186,81.547791 2263.483887,111.612007 2250.975098,142.443130 
M932.214600,125.903938 
	C934.656250,99.766815 937.097839,73.629692 939.562073,47.250523 
	C928.111694,47.250523 917.052063,47.250523 905.810120,47.250523 
	C891.607971,82.070763 877.468933,116.736183 863.150085,151.842499 
	C872.293579,151.842499 880.564819,151.842499 889.083618,151.842499 
	C891.515381,145.000122 893.944458,138.165298 896.329346,131.454865 
	C899.925781,131.454865 903.181641,131.454865 906.723450,131.454865 
	C905.768616,138.402954 904.856323,145.041641 903.928162,151.795715 
	C912.876404,151.795715 921.317749,151.795715 929.935669,151.795715 
	C930.687622,143.345352 931.422668,135.084213 932.214600,125.903938 
M1223.427490,142.870178 
	C1223.028564,145.782471 1222.629517,148.694763 1222.201782,151.817429 
	C1230.935059,151.817429 1239.386963,151.817429 1248.232300,151.817429 
	C1251.299683,116.921043 1254.360596,82.097694 1257.445923,46.996746 
	C1247.221069,46.996746 1237.577393,47.180523 1227.947388,46.896141 
	C1224.618530,46.797836 1223.382324,48.163471 1222.268677,50.923515 
	C1209.237671,83.215958 1196.106079,115.467773 1183.017700,147.737091 
	C1182.501343,149.009918 1182.152100,150.350525 1181.693970,151.754959 
	C1190.524414,151.754959 1198.787354,151.754959 1207.124634,151.754959 
	C1209.608887,144.759232 1212.025024,137.955551 1214.347412,131.415756 
	C1218.210815,131.415756 1221.492432,131.415756 1225.044189,131.415756 
	C1224.552490,135.132065 1224.096924,138.575424 1223.427490,142.870178 
M1546.747559,115.237122 
	C1548.691528,92.600227 1550.635498,69.963333 1552.594360,47.153404 
	C1541.429443,47.153404 1530.465454,47.153404 1519.414917,47.153404 
	C1505.157837,82.032547 1490.939209,116.817749 1476.557007,152.003250 
	C1481.213135,152.003250 1485.206299,152.003250 1489.199341,152.003250 
	C1502.301758,152.003235 1502.301758,152.003235 1506.659546,139.561218 
	C1509.718262,130.828186 1509.718384,130.824341 1518.989258,131.245422 
	C1519.286255,131.258896 1519.571533,131.530304 1520.168823,131.840759 
	C1519.284546,138.366577 1518.383911,145.014069 1517.479004,151.691559 
	C1526.432251,151.691559 1534.829224,151.691559 1543.435547,151.691559 
	C1544.510010,139.651978 1545.558594,127.900909 1546.747559,115.237122 
M1707.128418,64.002869 
	C1708.330566,63.437687 1710.346069,63.116272 1710.600586,62.267109 
	C1712.066406,57.376194 1713.115601,52.360424 1714.323975,47.311867 
	C1699.510742,47.311867 1685.096924,47.311867 1670.582031,47.311867 
	C1661.887085,82.221672 1653.259888,116.858780 1644.571411,151.742416 
	C1659.408691,151.742416 1673.809326,151.742416 1688.442261,151.742416 
	C1689.781250,145.994232 1691.073364,140.447510 1692.517212,134.249268 
	C1686.799438,134.249268 1681.897949,134.249268 1676.504150,134.249268 
	C1679.233032,123.419838 1681.810547,113.191017 1684.462402,102.667625 
	C1690.128906,102.667625 1695.397095,102.667625 1700.650024,102.667625 
	C1702.066040,96.961128 1703.384644,91.647369 1704.811279,85.897789 
	C1699.444702,85.897789 1694.333618,85.897789 1688.634766,85.897789 
	C1690.550415,78.245461 1692.336914,71.109093 1694.115845,64.003159 
	C1698.547974,64.003159 1702.374878,64.003159 1707.128418,64.002869 
M1015.594788,49.044235 
	C1015.082764,48.362946 1014.617920,47.143162 1014.050537,47.093430 
	C1011.571045,46.876083 1009.061829,46.997353 1006.563354,46.997307 
	C991.275085,46.997017 975.986755,46.997166 960.582703,46.997166 
	C959.055359,52.816151 957.631470,58.241226 956.090332,64.112740 
	C960.822815,64.112740 965.258484,64.112740 970.143982,64.112740 
	C962.892334,93.575516 955.758301,122.560562 948.562439,151.796738 
	C957.929016,151.796738 966.856995,151.796738 975.849548,151.796738 
	C983.188843,122.496628 990.483643,93.374344 997.818176,64.093338 
	C1002.760559,64.093338 1007.230652,64.093338 1011.869446,64.093338 
	C1013.054749,59.191620 1014.183594,54.523613 1015.594788,49.044235 
M2335.139404,140.634323 
	C2334.298828,144.303207 2333.458496,147.972076 2332.577637,151.817444 
	C2341.962158,151.817444 2350.904541,151.817444 2359.946533,151.817444 
	C2360.333008,150.391968 2360.703613,149.119659 2361.021973,147.834396 
	C2366.933350,123.986984 2372.832520,100.136543 2378.750977,76.290901 
	C2379.707031,72.439507 2379.575195,67.050507 2382.058594,65.186661 
	C2384.780762,63.143402 2389.950684,64.366562 2394.053223,64.150543 
	C2394.539795,64.124931 2395.020996,63.999916 2395.812744,63.870728 
	C2397.154541,58.390942 2398.509521,52.857487 2399.895508,47.197823 
	C2381.212402,47.197823 2362.936768,47.197823 2344.417236,47.197823 
	C2343.070557,52.770603 2341.756348,58.208492 2340.337402,64.079170 
	C2345.071533,64.079170 2349.354248,64.079170 2354.083984,64.079170 
	C2347.767822,89.617218 2341.558105,114.723900 2335.139404,140.634323 
M1377.817261,64.472366 
	C1377.007202,68.511757 1376.341431,72.586441 1375.363647,76.584824 
	C1369.253174,101.569122 1363.073120,126.536377 1356.847046,151.789490 
	C1366.090088,151.789490 1374.992798,151.789490 1384.169556,151.789490 
	C1391.483032,122.582306 1398.772461,93.471581 1406.109375,64.170540 
	C1410.847778,64.170540 1415.319580,64.170540 1420.140869,64.170540 
	C1421.532471,58.455963 1422.880737,52.918682 1424.257935,47.262669 
	C1405.473389,47.262669 1387.237061,47.262669 1368.776611,47.262669 
	C1367.342529,52.864834 1365.959717,58.266968 1364.440674,64.200867 
	C1369.017334,64.200867 1372.988403,64.200867 1377.817261,64.472366 
M1594.268433,136.793884 
	C1593.077637,141.737564 1591.886841,146.681229 1590.687378,151.660828 
	C1605.577515,151.660828 1619.982910,151.660828 1634.450806,151.660828 
	C1635.802124,145.919861 1637.079224,140.494171 1638.501099,134.453430 
	C1632.948364,134.453430 1628.031250,134.453430 1622.420654,134.453430 
	C1629.757202,105.040161 1636.934937,76.263542 1644.158325,47.303585 
	C1634.798218,47.303585 1625.751343,47.303585 1616.590210,47.303585 
	C1609.210693,77.053352 1601.896240,106.540810 1594.268433,136.793884 
M1302.757812,140.263596 
	C1303.134521,138.510773 1303.511108,136.757935 1304.042480,134.285431 
	C1298.518188,134.285431 1293.369507,134.285431 1287.976807,134.285431 
	C1295.222046,104.846962 1302.295288,76.107529 1309.419678,47.159958 
	C1299.842407,47.159958 1291.040527,47.159958 1282.128052,47.159958 
	C1273.446533,82.083351 1264.797241,116.877617 1256.107666,151.833801 
	C1270.835693,151.833801 1285.302612,151.833801 1299.832520,151.833801 
	C1300.740479,148.137634 1301.612549,144.587280 1302.757812,140.263596 
M1582.088013,139.737457 
	C1589.764526,108.986214 1597.441040,78.234962 1605.164917,47.294098 
	C1595.794312,47.294098 1586.743652,47.294098 1577.572266,47.294098 
	C1568.807617,82.215157 1560.106323,116.883575 1551.346558,151.784897 
	C1561.079102,151.784897 1570.007202,151.784897 1579.136841,151.784897 
	C1580.103638,147.937408 1581.031128,144.245575 1582.088013,139.737457 
M1027.253052,143.930893 
	C1035.363525,111.776360 1043.473877,79.621819 1051.641724,47.239479 
	C1042.024658,47.239479 1033.104858,47.239479 1024.008301,47.239479 
	C1015.279602,82.151596 1006.597595,116.876900 997.886658,151.717651 
	C1007.414795,151.717651 1016.338684,151.717651 1025.381836,151.717651 
	C1025.986206,149.237946 1026.533813,146.991425 1027.253052,143.930893 
M2429.626953,71.173355 
	C2431.577148,63.236710 2433.527344,55.300064 2435.539307,47.110939 
	C2425.961670,47.110939 2417.156006,47.110939 2408.053955,47.110939 
	C2399.356689,81.986855 2390.669434,116.824028 2381.950439,151.787659 
	C2391.455078,151.787659 2400.405273,151.787659 2409.584961,151.787659 
	C2416.190186,125.074417 2422.758789,98.509377 2429.626953,71.173355 
z"/>
<path fill="#1C449C" opacity="1.000000" stroke="none" 
	d="
M206.643738,105.535019 
	C219.102798,105.354393 231.091431,105.101334 243.081284,105.015800 
	C271.239716,104.814934 299.398712,104.689476 327.557556,104.545021 
	C333.040680,104.516891 338.524048,104.540985 344.629272,104.540985 
	C348.685211,215.589951 352.747284,326.805939 356.809326,438.021973 
	C357.120911,438.113495 357.432495,438.205048 357.744080,438.296570 
	C359.231934,434.450439 360.719635,430.604248 362.207672,426.758179 
	C410.775085,301.225586 459.353333,175.697144 507.847656,50.136307 
	C509.059753,46.997986 510.241333,45.419464 514.082214,45.425770 
	C598.243591,45.563980 682.405334,45.530308 766.566956,45.529545 
	C767.877625,45.529533 769.188293,45.529545 771.546570,45.529545 
	C762.902100,81.357101 754.396240,116.609985 745.655029,152.838486 
	C738.928772,152.838486 732.146912,152.822220 725.365173,152.841187 
	C688.204529,152.945114 651.043884,153.055801 613.883240,153.168350 
	C602.079834,153.204102 602.116760,153.224533 597.829712,164.125168 
	C543.207336,303.013153 488.572418,441.896210 433.943634,580.781677 
	C421.167480,613.263123 408.370300,645.736450 395.692139,678.256104 
	C394.647186,680.936462 393.503937,682.089722 390.396484,682.082642 
	C339.899811,681.967468 289.402771,682.002258 238.905807,681.991394 
	C237.932114,681.991211 236.958466,681.848938 235.465240,681.732483 
	C228.773819,518.017334 222.086746,354.408081 215.377609,190.259186 
	C154.337265,190.259186 93.641747,190.259186 31.996630,190.259186 
	C38.547039,180.125671 44.556492,170.805786 50.589417,161.501114 
	C61.727688,144.322372 72.912636,127.173752 83.990364,109.956108 
	C85.641808,107.389336 87.343971,106.078491 90.710320,106.073471 
	C129.198349,106.016060 167.686066,105.749481 206.643738,105.535019 
z"/>
<path fill="#1C449C" opacity="1.000000" stroke="none" 
	d="
M2350.000000,228.162628 
	C2379.156738,228.162643 2407.818359,227.836044 2436.468506,228.268463 
	C2458.422119,228.599823 2480.409424,229.386154 2501.873291,234.939224 
	C2523.037598,240.414719 2530.810303,250.586426 2531.052490,272.336914 
	C2531.278076,292.596954 2525.726562,311.815460 2521.085449,331.206238 
	C2503.444336,404.910217 2485.812012,478.616486 2468.001465,552.279602 
	C2463.522217,570.805725 2457.045166,588.533203 2444.959961,603.760315 
	C2434.773682,616.594788 2420.691406,622.639465 2405.336426,624.742004 
	C2383.623779,627.715210 2361.706055,630.268005 2339.828125,630.731689 
	C2296.695801,631.645752 2253.530518,631.000549 2210.378906,631.000244 
	C2209.394043,631.000244 2208.409180,631.000305 2206.844238,631.000305 
	C2239.064941,496.589020 2271.193848,362.562592 2303.411865,228.162613 
	C2318.901367,228.162613 2334.200684,228.162613 2350.000000,228.162628 
M2360.364990,431.824158 
	C2349.712402,476.406158 2339.059814,520.988159 2328.267822,566.153870 
	C2333.121826,566.153870 2337.436523,566.247070 2341.746094,566.136353 
	C2354.901123,565.798340 2359.911865,561.606934 2362.952393,548.854675 
	C2379.410889,479.828278 2395.943848,410.819611 2412.350098,341.780853 
	C2415.228760,329.667603 2417.999268,317.504486 2420.113770,305.242676 
	C2421.425049,297.638275 2418.153564,294.032166 2410.505371,293.131866 
	C2406.219238,292.627258 2401.856934,292.801178 2397.553223,292.404572 
	C2394.513184,292.124359 2393.532227,293.540222 2392.983154,296.245880 
	C2391.959229,301.290039 2390.592773,306.264191 2389.390869,311.272705 
	C2379.810547,351.197510 2370.235596,391.123596 2360.364990,431.824158 
z"/>
<path fill="#1C449C" opacity="1.000000" stroke="none" 
	d="
M2058.976318,629.305359 
	C2070.108887,582.643372 2081.208496,536.426270 2092.223389,490.189087 
	C2092.831787,487.635132 2092.956055,484.911926 2092.926025,482.271881 
	C2092.875244,477.807281 2090.676514,474.219116 2086.326416,473.374329 
	C2080.503662,472.243561 2074.499023,471.906494 2068.555908,471.693939 
	C2067.648682,471.661499 2066.130371,474.005249 2065.773193,475.464905 
	C2058.110840,506.783966 2050.567383,538.132080 2043.015259,569.478027 
	C2038.114502,589.819824 2033.236572,610.167053 2028.296753,630.727417 
	C1993.150757,630.727417 1958.235840,630.727417 1922.550049,630.727417 
	C1954.692261,496.540802 1986.796753,362.512054 2018.979004,228.158142 
	C2020.914795,228.158142 2022.548706,228.158081 2024.182495,228.158142 
	C2066.836670,228.159592 2109.493408,227.890213 2152.144043,228.275803 
	C2173.759277,228.471207 2195.437500,229.355530 2216.500244,235.070129 
	C2238.394287,241.010300 2246.245605,251.572876 2246.497559,274.235870 
	C2246.688721,291.420441 2242.754150,307.925507 2238.426758,324.333801 
	C2233.218018,344.083405 2228.326904,363.968536 2221.909668,383.334900 
	C2213.347656,409.174316 2195.147705,425.633972 2168.810303,432.918427 
	C2167.411377,433.305420 2166.049072,433.825806 2165.021729,434.167084 
	C2170.827148,436.743805 2176.926758,438.991669 2182.580811,442.060577 
	C2192.863281,447.641663 2198.148926,456.657562 2199.214844,468.277740 
	C2200.469482,481.956970 2197.422607,495.045898 2194.239746,508.182129 
	C2184.689941,547.592712 2175.316895,587.046143 2165.862549,626.479858 
	C2165.520752,627.905273 2165.048828,629.299561 2164.552246,630.999634 
	C2157.379395,630.999634 2150.232910,630.998962 2143.086426,630.999695 
	C2116.594238,631.002380 2090.101807,631.026978 2063.609863,630.954529 
	C2062.047119,630.950256 2060.486572,630.166809 2058.976318,629.305359 
M2089.715088,375.144165 
	C2088.064453,381.906952 2086.414062,388.669769 2084.657715,395.866455 
	C2088.985352,396.095306 2092.952881,396.650360 2096.882080,396.451721 
	C2111.910400,395.692139 2115.527344,392.618744 2119.125977,378.010895 
	C2122.461914,364.467499 2125.847412,350.934662 2128.996826,337.347443 
	C2131.542969,326.362366 2134.170410,315.368774 2135.983887,304.252014 
	C2137.023682,297.877930 2134.291748,294.907562 2127.846191,294.083221 
	C2121.792725,293.308990 2115.650146,293.230408 2109.291992,292.829651 
	C2102.725830,320.419983 2096.311035,347.374329 2089.715088,375.144165 
z"/>
<path fill="#1C459C" opacity="1.000000" stroke="none" 
	d="
M1082.713379,453.635590 
	C1068.443481,512.859741 1054.286865,571.685852 1040.078491,630.727173 
	C1007.156067,630.727173 974.425598,630.727173 941.362305,630.727173 
	C939.604614,566.390381 937.850830,502.197052 936.097107,438.003693 
	C935.805664,437.956177 935.514160,437.908630 935.222717,437.861084 
	C919.776184,502.155243 904.329651,566.449402 888.862122,630.830688 
	C858.494080,630.830688 828.363525,630.830688 797.819763,630.830688 
	C829.977966,496.585938 862.075317,362.595337 894.220459,228.405334 
	C926.982117,228.405334 959.584534,228.405334 992.638672,228.405334 
	C993.599548,295.220398 994.558289,361.883331 995.516968,428.546295 
	C995.900024,428.594086 996.283020,428.641846 996.666016,428.689636 
	C999.115967,418.554047 1001.579834,408.421783 1004.013672,398.282318 
	C1017.362793,342.668762 1030.683838,287.048401 1044.173950,231.469070 
	C1044.497681,230.135651 1046.675659,228.308029 1047.998169,228.300262 
	C1076.829956,228.130951 1105.662964,228.185760 1134.495850,228.215912 
	C1134.965576,228.216400 1135.434937,228.445679 1136.595581,228.748474 
	C1118.664551,303.611694 1100.745605,378.424652 1082.713379,453.635590 
z"/>
<path fill="#1C459C" opacity="1.000000" stroke="none" 
	d="
M1561.677734,627.781738 
	C1525.857178,634.690918 1490.074463,635.174377 1454.284546,633.139648 
	C1437.916260,632.209167 1421.453735,630.091614 1405.430908,626.659241 
	C1385.901611,622.475586 1379.106323,614.069885 1377.757690,594.172913 
	C1377.113159,584.660706 1377.651245,574.722839 1379.709961,565.433533 
	C1388.196777,527.141541 1397.349243,488.994904 1406.483276,450.849030 
	C1423.899292,378.116943 1441.469116,305.421692 1458.983154,232.713074 
	C1459.330444,231.271637 1459.777466,229.854248 1460.206665,228.323517 
	C1495.352783,228.323517 1530.318481,228.323517 1565.871704,228.323517 
	C1563.483887,238.458542 1561.182251,248.401657 1558.796997,258.324707 
	C1535.648438,354.629089 1512.467407,450.925690 1489.393066,547.247803 
	C1488.436890,551.238892 1488.041138,555.467346 1488.113647,559.572327 
	C1488.184570,563.580566 1490.582275,566.163330 1494.734985,567.205933 
	C1506.562866,570.175171 1515.176270,565.157104 1518.016357,553.359009 
	C1543.690308,446.708771 1569.352905,340.055786 1595.026001,233.405380 
	C1595.412964,231.798126 1595.889404,230.212418 1596.376709,228.423508 
	C1631.510376,228.423508 1666.579224,228.423508 1702.103882,228.423508 
	C1698.010864,245.383408 1693.985229,261.990601 1689.995972,278.606567 
	C1668.344482,368.785858 1646.795166,458.989929 1624.941650,549.120239 
	C1622.133423,560.702332 1618.296753,572.111450 1614.005249,583.241699 
	C1604.751953,607.239624 1588.306396,623.288452 1561.677734,627.781738 
z"/>
<path fill="#1C449C" opacity="1.000000" stroke="none" 
	d="
M1268.361450,300.521179 
	C1264.118896,316.614990 1259.859131,332.328247 1256.032104,348.146149 
	C1240.435425,412.608276 1224.938965,477.094727 1209.516357,541.598633 
	C1208.210815,547.058838 1207.347778,552.689941 1206.974487,558.288025 
	C1206.653076,563.108765 1209.679688,566.143311 1214.392456,566.826660 
	C1226.655518,568.604980 1234.883301,563.353333 1237.224854,552.386658 
	C1241.492310,532.399475 1246.743042,512.622375 1251.567383,492.753723 
	C1251.797485,491.805969 1251.871704,490.820374 1252.095337,489.346436 
	C1245.755981,489.346436 1239.690552,489.346436 1232.890259,489.346436 
	C1238.152344,467.334229 1243.266602,445.940552 1248.463989,424.199615 
	C1289.883911,424.199615 1331.289795,424.199615 1373.569458,424.199615 
	C1356.998901,493.105408 1340.469604,561.839661 1323.838013,630.999756 
	C1308.982422,630.999756 1294.186646,631.063538 1279.394043,630.875488 
	C1278.243530,630.860901 1276.656982,629.309143 1276.051636,628.086365 
	C1272.298340,620.505554 1268.767822,612.814514 1264.963379,604.735474 
	C1263.924805,605.429077 1263.104736,605.860779 1262.420776,606.450562 
	C1244.723022,621.714050 1224.218506,630.350342 1200.972290,632.552246 
	C1177.502319,634.775330 1154.103271,635.113586 1130.901001,630.004883 
	C1130.413940,629.897705 1129.924194,629.800293 1129.442505,629.672913 
	C1103.988159,622.945374 1094.715576,608.932617 1096.606445,581.136536 
	C1098.040527,560.053650 1104.065186,539.949036 1108.927368,519.599731 
	C1125.846436,448.790680 1142.799194,377.988922 1160.096191,307.271729 
	C1162.963867,295.547150 1167.061646,284.036530 1171.561035,272.815918 
	C1181.315308,248.489410 1199.696045,235.135086 1225.552002,230.920715 
	C1254.300293,226.234909 1283.198120,225.565063 1312.185425,225.927780 
	C1333.340576,226.192505 1354.460815,227.041916 1375.191040,231.873001 
	C1377.615845,232.438095 1380.020264,233.126709 1382.385498,233.906082 
	C1397.871338,239.008881 1405.114746,248.534653 1406.041504,264.823914 
	C1406.813843,278.400665 1405.306641,291.753937 1402.163452,304.941986 
	C1397.425049,324.823822 1392.628052,344.691772 1387.807861,364.766296 
	C1352.743530,364.766296 1317.789062,364.766296 1282.194702,364.766296 
	C1284.660767,354.574097 1287.122559,344.520386 1289.520996,334.451599 
	C1291.715576,325.238525 1294.141235,316.065155 1295.879517,306.764832 
	C1296.838989,301.631500 1297.727783,295.854126 1291.327393,292.893646 
	C1284.783813,289.866913 1275.708618,291.317535 1271.362183,296.097382 
	C1270.258057,297.311615 1269.474121,298.817078 1268.361450,300.521179 
z"/>
<path fill="#1C459C" opacity="1.000000" stroke="none" 
	d="
M1913.196533,350.315491 
	C1909.882324,391.926331 1906.580566,433.070679 1903.308716,474.217377 
	C1900.511475,509.395538 1897.762573,544.577637 1894.963379,579.755676 
	C1893.618774,596.655701 1892.207520,613.550415 1890.804565,630.715393 
	C1857.561768,630.715393 1824.490112,630.715393 1791.002441,630.715393 
	C1794.552979,604.473450 1798.086670,578.355530 1801.726562,551.452698 
	C1796.240112,551.452698 1791.149780,551.452698 1786.059448,551.452698 
	C1778.895020,551.452698 1771.718262,551.705994 1764.571167,551.352905 
	C1760.614014,551.157471 1759.163696,552.760559 1757.999634,556.270386 
	C1750.101440,580.083252 1741.989014,603.825012 1733.932861,627.585388 
	C1733.565796,628.668152 1733.074219,629.708679 1732.604736,630.856384 
	C1700.056152,630.856384 1667.598755,630.856384 1634.580811,630.856384 
	C1635.565552,628.100037 1636.364868,625.616150 1637.329346,623.198120 
	C1689.156006,493.254822 1741.019287,363.326172 1792.730103,233.336807 
	C1794.358398,229.243561 1796.286377,228.032623 1800.621094,228.053925 
	C1839.607788,228.245361 1878.595703,228.163834 1917.583374,228.162476 
	C1919.216553,228.162415 1920.849854,228.162460 1922.978760,228.162460 
	C1922.240723,238.165115 1921.577393,247.733063 1920.821411,257.293671 
	C1918.499146,286.660278 1916.144531,316.024292 1913.788086,345.388184 
	C1913.668335,346.881012 1913.413818,348.362976 1913.196533,350.315491 
M1823.371338,362.858826 
	C1809.349731,403.672638 1795.328003,444.486450 1781.188965,485.642090 
	C1792.016479,485.642090 1802.272095,485.642090 1812.918457,485.642090 
	C1819.713989,436.135406 1826.488159,386.783844 1833.262451,337.432281 
	C1832.925293,337.372375 1832.588135,337.312469 1832.250977,337.252594 
	C1829.405396,345.552765 1826.559814,353.852936 1823.371338,362.858826 
z"/>
<path fill="#1C459C" opacity="1.000000" stroke="none" 
	d="
M629.863525,566.867554 
	C622.514709,588.454163 615.272400,609.659607 608.029541,630.866699 
	C575.245728,630.866699 542.782776,630.866699 509.648346,630.866699 
	C563.237061,496.435638 616.684937,362.357910 670.070923,228.435425 
	C712.840637,228.435425 755.272949,228.435425 798.340942,228.435425 
	C787.594849,362.728516 776.874878,496.694916 766.142578,630.815125 
	C732.742615,630.815125 699.789795,630.815125 666.298157,630.815125 
	C669.864319,604.437805 673.413025,578.189819 677.022766,551.489868 
	C663.394287,551.489868 650.248657,551.430542 637.106201,551.606995 
	C636.097229,551.620544 634.644348,553.112183 634.197510,554.234985 
	C632.601807,558.244568 631.351196,562.391418 629.863525,566.867554 
M691.006226,465.542389 
	C696.796326,423.261963 702.586426,380.981567 708.376587,338.701141 
	C707.967346,338.599701 707.558167,338.498260 707.148926,338.396820 
	C690.293152,387.364807 673.437317,436.332825 656.448486,485.687256 
	C667.419434,485.687256 677.548950,485.687256 688.120056,485.687256 
	C689.062378,479.205109 689.990906,472.817657 691.006226,465.542389 
z"/>
<path fill="#020202" opacity="1.000000" stroke="none" 
	d="
M2195.983887,74.856735 
	C2198.291748,65.429306 2200.535400,56.409760 2202.998291,46.507607 
	C2219.315430,47.033623 2235.584229,47.195465 2251.796631,48.232929 
	C2259.963623,48.755554 2263.125244,52.472149 2261.775391,60.567020 
	C2260.095703,70.639435 2257.535889,80.739761 2253.808350,90.219391 
	C2252.047363,94.698174 2246.682861,97.759918 2243.111572,101.304298 
	C2249.645996,105.643921 2250.706543,108.489365 2248.445068,117.659653 
	C2245.629883,129.073318 2242.816406,140.487442 2240.008301,151.876648 
	C2230.620361,151.876648 2221.642578,151.876648 2212.184570,151.876648 
	C2214.990723,140.606888 2217.742432,129.564636 2220.487549,118.520851 
	C2220.727783,117.554543 2220.907227,116.573067 2221.148682,115.607193 
	C2221.802734,112.995705 2221.403564,111.074936 2218.335449,110.335938 
	C2215.051758,109.545074 2214.484863,111.400215 2213.872559,113.994179 
	C2210.901123,126.581833 2207.752686,139.127762 2204.633057,151.827057 
	C2195.393799,151.827057 2186.269775,151.827057 2176.777588,151.827057 
	C2183.197754,126.147667 2189.558594,100.706139 2195.983887,74.856735 
M2228.960693,84.424835 
	C2230.073486,79.759140 2231.180420,75.092079 2232.300049,70.428093 
	C2233.777832,64.272041 2233.138428,63.595642 2226.380615,64.450806 
	C2224.196533,72.963127 2221.993408,81.550110 2219.730957,90.367943 
	C2224.788574,91.496773 2227.875244,90.205765 2228.960693,84.424835 
z"/>
<path fill="#020202" opacity="1.000000" stroke="none" 
	d="
M818.048645,47.668762 
	C826.531494,47.262672 834.843079,47.262672 843.651489,47.262672 
	C843.651489,63.753033 843.651489,80.333755 843.651489,96.914467 
	C844.012146,96.965645 844.372803,97.016815 844.733459,97.067993 
	C848.912048,80.542717 853.090637,64.017441 857.332031,47.243706 
	C865.044617,47.243706 872.825073,47.243706 881.247498,47.243706 
	C872.546143,82.204971 863.876160,117.040070 855.217651,151.829102 
	C846.524597,151.829102 838.235168,151.829102 829.330750,151.829102 
	C829.330750,136.076080 829.330750,120.488457 829.330750,104.900833 
	C828.843628,104.824425 828.356506,104.748016 827.869385,104.671608 
	C823.910217,120.305359 819.951050,135.939102 815.941650,151.771149 
	C807.976562,151.771149 800.087891,151.771149 791.906555,151.771149 
	C800.606934,117.032356 809.242188,82.553604 818.048645,47.668762 
z"/>
<path fill="#020202" opacity="1.000000" stroke="none" 
	d="
M2572.929932,89.968094 
	C2567.718018,110.792564 2562.572510,131.208237 2557.386230,151.784256 
	C2548.755127,151.784256 2540.304688,151.784256 2530.885254,151.784256 
	C2530.885254,136.660934 2530.885254,121.477852 2530.885254,106.294769 
	C2530.391602,106.257965 2529.897949,106.221161 2529.404053,106.184357 
	C2525.662598,121.316292 2521.920898,136.448227 2518.134277,151.761932 
	C2510.201416,151.761932 2502.443115,151.761932 2494.232666,151.761932 
	C2502.923584,116.815147 2511.584717,81.988655 2520.256348,47.120331 
	C2528.861816,47.120331 2537.151367,47.120331 2545.928711,47.120331 
	C2545.928711,63.721493 2545.928711,80.220078 2545.928711,96.718658 
	C2546.270996,96.763504 2546.613525,96.808350 2546.955811,96.853195 
	C2551.044678,80.346573 2555.133545,63.839947 2559.260986,47.176430 
	C2567.102295,47.176430 2574.899170,47.176430 2583.474365,47.176430 
	C2579.949707,61.433582 2576.472900,75.496437 2572.929932,89.968094 
z"/>
<path fill="#020202" opacity="1.000000" stroke="none" 
	d="
M1709.035889,112.018120 
	C1714.472290,90.197159 1719.847412,68.785660 1725.064453,48.004486 
	C1741.345093,48.004486 1757.466797,47.556519 1773.546875,48.179928 
	C1782.555664,48.529190 1785.797852,52.943489 1784.270630,61.845623 
	C1782.790161,70.474930 1780.377930,78.977966 1777.874268,87.387436 
	C1775.896606,94.030670 1771.108521,98.287392 1763.484497,100.456635 
	C1774.155151,104.484444 1772.291382,112.039574 1770.261230,119.864906 
	C1767.553101,130.304016 1765.153809,140.823242 1762.540649,151.643921 
	C1753.464233,151.643921 1744.390137,151.643921 1734.690796,151.643921 
	C1736.543335,144.005280 1738.387695,136.365723 1740.251099,128.730804 
	C1741.234741,124.700493 1742.258179,120.679932 1743.251831,116.652054 
	C1744.595825,111.204468 1743.679932,110.214218 1737.212646,110.524864 
	C1733.828491,124.226990 1730.417114,138.038773 1727.021606,151.786270 
	C1717.607666,151.786270 1708.506836,151.786270 1699.119385,151.786270 
	C1702.449829,138.485733 1705.712402,125.456657 1709.035889,112.018120 
M1751.460449,83.967491 
	C1752.646606,79.484528 1753.957642,75.030037 1754.988159,70.511581 
	C1756.368286,64.460670 1755.443726,63.590759 1748.789185,64.438812 
	C1746.597900,72.963364 1744.384277,81.574989 1742.163818,90.212975 
	C1748.526123,91.338692 1749.726318,90.570915 1751.460449,83.967491 
z"/>
<path fill="#020202" opacity="1.000000" stroke="none" 
	d="
M1491.203369,62.381256 
	C1489.161255,70.850731 1487.399292,78.973564 1485.104004,86.942757 
	C1483.118896,93.834518 1478.174438,98.113785 1470.339478,100.521439 
	C1481.442749,104.592850 1479.352417,112.450897 1477.309082,120.367928 
	C1474.617065,130.798447 1472.028564,141.255661 1469.368652,151.807831 
	C1460.113037,151.807831 1451.167236,151.807831 1441.807373,151.807831 
	C1444.635986,139.864410 1447.427734,128.116364 1450.197388,116.363083 
	C1451.448120,111.055786 1450.826416,110.396156 1444.399902,110.492767 
	C1440.930054,124.193810 1437.433472,138.000107 1433.937500,151.804108 
	C1424.771118,151.804108 1415.818237,151.804108 1406.170410,151.804108 
	C1414.912109,116.819748 1423.566406,82.185020 1432.498047,46.440342 
	C1449.070801,47.048321 1465.840332,47.264542 1482.539917,48.460232 
	C1489.861938,48.984493 1491.964600,53.303925 1491.203369,62.381256 
M1452.859985,76.245514 
	C1451.670166,80.967697 1450.480225,85.689880 1449.265259,90.512291 
	C1454.700317,91.441574 1457.393188,89.758133 1458.367920,85.065758 
	C1459.380493,80.192238 1460.839111,75.413239 1461.954834,70.558914 
	C1463.305786,64.681526 1462.228760,63.631702 1455.741577,64.416031 
	C1454.837402,68.037865 1453.914551,71.734009 1452.859985,76.245514 
z"/>
<path fill="#020202" opacity="1.000000" stroke="none" 
	d="
M1980.189087,54.200691 
	C1980.912598,51.583797 1981.542480,49.372448 1981.944946,47.959621 
	C1998.014893,47.959621 2013.660889,47.553593 2029.272827,48.109447 
	C2038.884155,48.451664 2042.163208,52.302158 2040.803833,61.551159 
	C2039.507690,70.370071 2037.042480,79.074203 2034.419189,87.622543 
	C2032.395874,94.216415 2027.384399,98.373268 2021.297363,100.096100 
	C2023.467285,102.517387 2026.788452,104.729584 2027.755127,107.706322 
	C2028.797974,110.918198 2028.126343,114.954254 2027.348877,118.440346 
	C2024.859131,129.604599 2021.973999,140.680695 2019.226929,151.850464 
	C2009.917603,151.850464 2000.958862,151.850464 1991.390503,151.850464 
	C1994.291382,140.205521 1997.192871,128.834808 1999.937378,117.426361 
	C2001.349731,111.555298 2000.725098,110.825943 1994.113403,110.157471 
	C1990.638062,123.825500 1987.134399,137.605072 1983.550903,151.698502 
	C1974.566528,151.698502 1965.464355,151.698502 1956.083130,151.698502 
	C1964.091309,119.317978 1972.093384,86.962097 1980.189087,54.200691 
M2010.194214,75.743492 
	C2010.587524,74.137543 2010.985352,72.532677 2011.373413,70.925491 
	C2012.945068,64.417213 2012.278809,63.660362 2005.307251,64.389000 
	C2003.209717,72.908836 2001.088379,81.525688 1998.964355,90.153870 
	C2004.769165,91.340485 2006.649170,90.279816 2007.940674,85.243233 
	C2008.680176,82.358803 2009.353394,79.457352 2010.194214,75.743492 
z"/>
<path fill="#020202" opacity="1.000000" stroke="none" 
	d="
M1177.866821,133.814423 
	C1176.279297,139.992096 1174.768677,145.763885 1173.204956,151.738571 
	C1164.775024,151.738571 1156.510376,151.738571 1147.405762,151.738571 
	C1147.405762,136.198334 1147.405762,120.554459 1147.405762,104.910583 
	C1146.884521,104.847061 1146.363403,104.783539 1145.842163,104.720016 
	C1141.882446,120.387589 1137.922729,136.055161 1133.945068,151.793701 
	C1126.035889,151.793701 1118.265137,151.793701 1110.084961,151.793701 
	C1118.862427,116.736008 1127.566284,81.972221 1136.285645,47.146179 
	C1144.916382,47.146179 1153.215088,47.146179 1162.327881,47.146179 
	C1162.327881,63.013920 1162.327881,78.855225 1162.327881,94.696533 
	C1162.746582,94.725060 1163.165283,94.753593 1163.583862,94.782120 
	C1167.492920,78.957069 1171.401978,63.132023 1175.343384,47.175594 
	C1183.287354,47.175594 1191.080322,47.175594 1199.447266,47.175594 
	C1192.234741,76.099091 1185.089233,104.753807 1177.866821,133.814423 
z"/>
<path fill="#030303" opacity="1.000000" stroke="none" 
	d="
M2124.606689,64.670593 
	C2127.657471,52.753166 2135.019043,46.725273 2146.970947,46.861744 
	C2157.751953,46.984852 2168.586182,46.894981 2179.287842,47.977894 
	C2186.680420,48.725960 2189.065674,51.882229 2187.997559,59.219532 
	C2186.496826,69.531647 2183.906982,79.698883 2181.508057,89.863235 
	C2178.457031,102.790985 2175.198975,115.671524 2171.880859,128.533859 
	C2170.890381,132.373367 2169.531494,136.134842 2168.104736,139.840927 
	C2165.777832,145.884796 2161.369629,149.638260 2154.959473,150.809906 
	C2141.739502,153.226227 2128.472168,153.299149 2115.248291,150.995056 
	C2108.903809,149.889557 2106.726318,147.130096 2106.899170,140.660645 
	C2107.000732,136.866364 2107.458252,133.004166 2108.362549,129.321518 
	C2113.629883,107.870399 2119.077637,86.463463 2124.606689,64.670593 
M2146.489990,87.989731 
	C2145.482666,92.013603 2144.479492,96.038544 2143.467529,100.061203 
	C2141.160156,109.230759 2138.661865,118.358986 2136.668701,127.596306 
	C2136.171875,129.899002 2136.717285,134.387192 2137.779785,134.723602 
	C2142.187744,136.118866 2143.101074,132.335129 2143.935547,128.993073 
	C2148.796631,109.528221 2153.701416,90.074158 2158.513184,70.597153 
	C2159.004639,68.606934 2158.978271,66.488770 2159.183594,64.511566 
	C2154.652344,63.009109 2152.252686,64.051422 2151.317627,68.345207 
	C2149.941650,74.663445 2148.290771,80.921829 2146.489990,87.989731 
z"/>
<path fill="#030303" opacity="1.000000" stroke="none" 
	d="
M2437.225342,83.217140 
	C2439.333740,75.450951 2441.115234,68.012222 2443.438477,60.746807 
	C2445.859375,53.176937 2450.960449,47.836609 2459.193848,47.534256 
	C2471.287842,47.090118 2483.470459,46.772270 2495.505615,47.750874 
	C2504.521484,48.483952 2506.762695,52.333237 2505.216797,61.520313 
	C2503.786133,70.022179 2501.698975,78.426033 2499.623535,86.804268 
	C2495.869873,101.954758 2491.918213,117.056221 2488.032959,132.173965 
	C2484.361572,146.460892 2479.285156,151.197708 2464.514893,151.850677 
	C2453.939209,152.318207 2443.247314,151.919235 2432.709961,150.874634 
	C2425.719482,150.181671 2423.164062,146.828079 2424.177002,139.877991 
	C2425.608887,130.055679 2428.199707,120.394554 2430.460693,110.703171 
	C2432.573486,101.649406 2434.902588,92.646194 2437.225342,83.217140 
M2461.110107,129.638016 
	C2466.146484,109.141930 2471.217285,88.654007 2476.134521,68.129410 
	C2476.429688,66.897354 2475.501221,65.372177 2475.142090,63.983379 
	C2473.248779,64.615585 2471.257324,65.062004 2469.517090,65.983322 
	C2468.927002,66.295708 2468.970947,67.807266 2468.726562,68.771202 
	C2466.276367,78.436028 2463.820801,88.099541 2461.377197,97.766022 
	C2458.688965,108.399094 2455.910889,119.011490 2453.441162,129.695099 
	C2453.079346,131.260239 2454.207520,133.169815 2454.646240,134.920120 
	C2456.567383,134.058716 2458.531006,133.275620 2460.377197,132.275635 
	C2460.791748,132.051071 2460.795166,131.067551 2461.110107,129.638016 
z"/>
<path fill="#030303" opacity="1.000000" stroke="none" 
	d="
M1906.893555,57.028137 
	C1909.741089,51.669247 1913.815674,48.081032 1919.533081,47.921013 
	C1932.436890,47.559860 1945.403076,47.109882 1958.253418,48.000053 
	C1966.121582,48.545090 1968.396240,52.219082 1967.054443,59.979454 
	C1965.219238,70.593483 1962.635620,81.089455 1960.082397,91.565262 
	C1956.623169,105.758446 1952.826904,119.869164 1949.292847,134.044601 
	C1946.720703,144.362106 1940.725464,151.152603 1929.750854,151.486755 
	C1918.001709,151.844467 1906.191040,151.682236 1894.469238,150.861130 
	C1887.855957,150.397873 1885.297974,146.964539 1885.979492,140.312943 
	C1886.685547,133.422409 1888.388184,126.604630 1890.024414,119.844490 
	C1894.204712,102.574348 1898.528809,85.338058 1902.944092,68.126434 
	C1903.885620,64.456444 1905.458984,60.948536 1906.893555,57.028137 
M1936.127930,75.764427 
	C1936.699341,73.682686 1937.563843,71.627548 1937.755981,69.511375 
	C1937.930420,67.589943 1940.272461,64.680489 1936.274536,63.921032 
	C1933.174072,63.332039 1931.403320,64.612480 1930.673828,67.957176 
	C1929.153320,74.928688 1927.227661,81.811661 1925.477051,88.733170 
	C1922.057251,102.254555 1918.534912,115.752098 1915.365234,129.331924 
	C1914.970947,131.021225 1916.460938,133.150299 1917.077881,135.075577 
	C1918.916260,133.790802 1920.835938,132.602264 1922.543335,131.162155 
	C1923.048462,130.735962 1922.940552,129.597107 1923.139038,128.791092 
	C1927.425415,111.386215 1931.715454,93.982208 1936.127930,75.764427 
z"/>
<path fill="#030303" opacity="1.000000" stroke="none" 
	d="
M1071.812012,152.514954 
	C1065.191162,152.310196 1059.011353,152.423477 1052.899902,151.831161 
	C1041.747559,150.750305 1038.324463,146.093658 1040.642822,135.138474 
	C1042.496704,126.378471 1044.829468,117.718857 1046.995117,109.025970 
	C1050.604492,94.537193 1054.080322,80.012070 1057.929565,65.586891 
	C1061.682495,51.522655 1065.974487,47.790924 1080.516602,46.915592 
	C1089.948364,46.347866 1099.482178,46.513325 1108.914185,47.164310 
	C1120.064819,47.933910 1122.998779,51.681122 1121.011841,62.869259 
	C1119.275269,72.648064 1116.474243,82.239746 1114.093506,91.901772 
	C1110.798706,105.274178 1107.502808,118.646629 1104.123291,131.997726 
	C1100.456543,146.483063 1095.197144,150.852295 1080.248047,152.016602 
	C1077.596436,152.223114 1074.938843,152.350769 1071.812012,152.514954 
M1070.903076,124.269958 
	C1070.446411,126.034233 1069.611694,127.804008 1069.637329,129.561249 
	C1069.664062,131.386688 1070.522583,133.200012 1071.017334,135.018661 
	C1072.943726,133.864471 1075.494263,133.131470 1076.632446,131.445206 
	C1077.937500,129.511581 1077.995483,126.733826 1078.585815,124.320511 
	C1083.152832,105.651619 1087.752319,86.990479 1092.205444,68.294449 
	C1092.508667,67.021400 1091.708008,65.485413 1091.420654,64.071678 
	C1089.486328,64.601135 1087.130127,64.635078 1085.747559,65.812469 
	C1084.583130,66.804192 1084.466064,69.104004 1084.029907,70.860649 
	C1079.677856,88.386833 1075.355835,105.920433 1070.903076,124.269958 
z"/>
<path fill="#030303" opacity="1.000000" stroke="none" 
	d="
M1812.824341,140.799088 
	C1814.503418,132.066467 1815.953979,123.727661 1817.911743,115.509705 
	C1821.799194,99.190643 1825.876831,82.915245 1830.044312,66.664993 
	C1833.806152,51.995995 1838.988892,47.458481 1854.027954,46.983212 
	C1864.457397,46.653614 1874.976196,46.956989 1885.355591,47.983665 
	C1892.687500,48.708904 1894.756714,51.500221 1894.017456,58.719666 
	C1893.261353,66.103287 1891.377075,73.383568 1889.715576,80.647102 
	C1889.504517,81.569809 1887.666992,82.718697 1886.560669,82.742836 
	C1878.415771,82.920471 1870.265137,82.838799 1861.541992,82.838799 
	C1862.510986,78.778313 1863.575806,75.150719 1864.191772,71.448433 
	C1864.615112,68.903938 1867.540527,65.247505 1862.968994,64.044174 
	C1858.380737,62.836449 1857.763428,66.925705 1856.950928,70.179329 
	C1853.932861,82.265076 1850.930908,94.354881 1847.895508,106.436279 
	C1846.033813,113.846748 1843.915527,121.202057 1842.373779,128.677261 
	C1841.973999,130.614929 1842.777832,134.336746 1843.946655,134.771606 
	C1847.337646,136.033142 1848.780273,133.324265 1849.535645,130.237747 
	C1851.391113,122.656662 1853.382446,115.108894 1855.390259,107.270538 
	C1864.408447,107.270538 1873.510254,107.270538 1883.117798,107.270538 
	C1880.633911,116.976067 1878.413940,126.635559 1875.656372,136.139069 
	C1873.073120,145.041718 1867.389648,151.180084 1857.619019,151.399963 
	C1845.532837,151.671921 1833.402588,151.633301 1821.345459,150.871323 
	C1815.047607,150.473312 1813.468750,147.764160 1812.824341,140.799088 
z"/>
<path fill="#020202" opacity="1.000000" stroke="none" 
	d="
M2039.193726,114.205887 
	C2044.813599,91.582611 2050.337891,69.361137 2055.673096,47.899338 
	C2071.825195,47.899338 2087.464600,47.416317 2103.056396,48.070187 
	C2113.346191,48.501713 2116.745117,53.115929 2114.678711,63.292942 
	C2112.139893,75.799355 2108.739990,88.144157 2105.364258,100.463448 
	C2102.523926,110.827980 2094.872070,115.273117 2084.618896,115.963028 
	C2078.663086,116.363785 2072.704346,116.719070 2066.311279,117.122292 
	C2063.453613,128.536057 2060.565918,140.069870 2057.629639,151.796844 
	C2048.511475,151.796844 2039.391968,151.796844 2029.836914,151.796844 
	C2032.950806,139.292526 2036.024414,126.950104 2039.193726,114.205887 
M2080.881836,89.358017 
	C2082.348877,83.069977 2083.813965,76.781509 2085.283447,70.494034 
	C2086.749756,64.219261 2086.206055,63.629112 2079.198730,64.439293 
	C2076.388184,75.943497 2073.541016,87.597359 2070.718994,99.147453 
	C2071.451172,99.525795 2071.728027,99.790283 2072.011719,99.797691 
	C2077.776611,99.948410 2078.271729,99.389771 2080.881836,89.358017 
z"/>
<path fill="#020202" opacity="1.000000" stroke="none" 
	d="
M2251.093994,142.071838 
	C2263.483887,111.612007 2275.815186,81.547791 2287.942627,51.401638 
	C2289.341064,47.925205 2291.034424,46.753288 2294.803955,46.887482 
	C2304.096191,47.218288 2313.407715,46.995869 2323.432129,46.995869 
	C2320.318115,82.114555 2317.231689,116.923248 2314.134521,151.852417 
	C2305.335938,151.852417 2296.879883,151.852417 2287.843750,151.852417 
	C2288.759521,145.069122 2289.656006,138.429123 2290.595947,131.467102 
	C2287.103027,131.467102 2283.863281,131.467102 2280.218994,131.467102 
	C2277.869873,138.106445 2275.448975,144.948471 2273.004883,151.856033 
	C2264.524902,151.856033 2256.241699,151.856033 2247.342285,151.856033 
	C2248.625488,148.531158 2249.800293,145.487152 2251.093994,142.071838 
M2287.349365,109.815842 
	C2286.987549,111.123856 2286.625732,112.431870 2286.238525,113.831383 
	C2288.951172,113.831383 2291.232178,113.831383 2293.830078,113.831383 
	C2295.364990,103.286163 2296.878662,92.886436 2298.392334,82.486710 
	C2297.912842,82.383331 2297.433594,82.279945 2296.954102,82.176567 
	C2293.873535,91.152565 2290.792725,100.128563 2287.349365,109.815842 
z"/>
<path fill="#020202" opacity="1.000000" stroke="none" 
	d="
M932.186157,126.363510 
	C931.422668,135.084213 930.687622,143.345352 929.935669,151.795715 
	C921.317749,151.795715 912.876404,151.795715 903.928162,151.795715 
	C904.856323,145.041641 905.768616,138.402954 906.723450,131.454865 
	C903.181641,131.454865 899.925781,131.454865 896.329346,131.454865 
	C893.944458,138.165298 891.515381,145.000122 889.083618,151.842499 
	C880.564819,151.842499 872.293579,151.842499 863.150085,151.842499 
	C877.468933,116.736183 891.607971,82.070763 905.810120,47.250523 
	C917.052063,47.250523 928.111694,47.250523 939.562073,47.250523 
	C937.097839,73.629692 934.656250,99.766815 932.186157,126.363510 
M911.716675,102.268875 
	C912.607422,95.710320 913.498169,89.151764 914.388916,82.593208 
	C913.956360,82.510170 913.523804,82.427132 913.091248,82.344086 
	C909.355652,92.768463 905.619995,103.192833 901.790222,113.879913 
	C904.715759,113.879913 907.163208,113.879913 909.832092,113.879913 
	C910.405273,110.224106 910.961792,106.674057 911.716675,102.268875 
z"/>
<path fill="#020202" opacity="1.000000" stroke="none" 
	d="
M1223.534424,142.444489 
	C1224.096924,138.575424 1224.552490,135.132065 1225.044189,131.415756 
	C1221.492432,131.415756 1218.210815,131.415756 1214.347412,131.415756 
	C1212.025024,137.955551 1209.608887,144.759232 1207.124634,151.754959 
	C1198.787354,151.754959 1190.524414,151.754959 1181.693970,151.754959 
	C1182.152100,150.350525 1182.501343,149.009918 1183.017700,147.737091 
	C1196.106079,115.467773 1209.237671,83.215958 1222.268677,50.923515 
	C1223.382324,48.163471 1224.618530,46.797836 1227.947388,46.896141 
	C1237.577393,47.180523 1247.221069,46.996746 1257.445923,46.996746 
	C1254.360596,82.097694 1251.299683,116.921043 1248.232300,151.817429 
	C1239.386963,151.817429 1230.935059,151.817429 1222.201782,151.817429 
	C1222.629517,148.694763 1223.028564,145.782471 1223.534424,142.444489 
M1222.580811,106.962547 
	C1221.803589,109.194931 1221.026367,111.427307 1220.220093,113.743134 
	C1223.207764,113.743134 1225.623779,113.743134 1228.272217,113.743134 
	C1229.678345,103.434471 1231.050293,93.376389 1232.422363,83.318298 
	C1231.966431,83.220383 1231.510620,83.122459 1231.054810,83.024536 
	C1228.325562,90.761505 1225.596313,98.498474 1222.580811,106.962547 
z"/>
<path fill="#020202" opacity="1.000000" stroke="none" 
	d="
M1546.677490,115.693481 
	C1545.558594,127.900909 1544.510010,139.651978 1543.435547,151.691559 
	C1534.829224,151.691559 1526.432251,151.691559 1517.479004,151.691559 
	C1518.383911,145.014069 1519.284546,138.366577 1520.168823,131.840759 
	C1519.571533,131.530304 1519.286255,131.258896 1518.989258,131.245422 
	C1509.718384,130.824341 1509.718262,130.828186 1506.659546,139.561218 
	C1502.301758,152.003235 1502.301758,152.003235 1489.199341,152.003250 
	C1485.206299,152.003250 1481.213135,152.003250 1476.557007,152.003250 
	C1490.939209,116.817749 1505.157837,82.032547 1519.414917,47.153404 
	C1530.465454,47.153404 1541.429443,47.153404 1552.594360,47.153404 
	C1550.635498,69.963333 1548.691528,92.600227 1546.677490,115.693481 
M1517.333252,107.956360 
	C1516.759155,109.830467 1516.185059,111.704575 1515.532349,113.835327 
	C1518.277222,113.835327 1520.694946,113.835327 1523.454346,113.835327 
	C1525.036499,102.963371 1526.597656,92.234337 1528.158936,81.505302 
	C1527.755371,81.421127 1527.351685,81.336960 1526.947998,81.252785 
	C1523.875122,89.915764 1520.802246,98.578735 1517.333252,107.956360 
z"/>
<path fill="#020202" opacity="1.000000" stroke="none" 
	d="
M1706.665039,64.003014 
	C1702.374878,64.003159 1698.547974,64.003159 1694.115845,64.003159 
	C1692.336914,71.109093 1690.550415,78.245461 1688.634766,85.897789 
	C1694.333618,85.897789 1699.444702,85.897789 1704.811279,85.897789 
	C1703.384644,91.647369 1702.066040,96.961128 1700.650024,102.667625 
	C1695.397095,102.667625 1690.128906,102.667625 1684.462402,102.667625 
	C1681.810547,113.191017 1679.233032,123.419838 1676.504150,134.249268 
	C1681.897949,134.249268 1686.799438,134.249268 1692.517212,134.249268 
	C1691.073364,140.447510 1689.781250,145.994232 1688.442261,151.742416 
	C1673.809326,151.742416 1659.408691,151.742416 1644.571411,151.742416 
	C1653.259888,116.858780 1661.887085,82.221672 1670.582031,47.311867 
	C1685.096924,47.311867 1699.510742,47.311867 1714.323975,47.311867 
	C1713.115601,52.360424 1712.066406,57.376194 1710.600586,62.267109 
	C1710.346069,63.116272 1708.330566,63.437687 1706.665039,64.003014 
z"/>
<path fill="#020202" opacity="1.000000" stroke="none" 
	d="
M1015.453613,49.449921 
	C1014.183594,54.523613 1013.054749,59.191620 1011.869446,64.093338 
	C1007.230652,64.093338 1002.760559,64.093338 997.818176,64.093338 
	C990.483643,93.374344 983.188843,122.496628 975.849548,151.796738 
	C966.856995,151.796738 957.929016,151.796738 948.562439,151.796738 
	C955.758301,122.560562 962.892334,93.575516 970.143982,64.112740 
	C965.258484,64.112740 960.822815,64.112740 956.090332,64.112740 
	C957.631470,58.241226 959.055359,52.816151 960.582703,46.997166 
	C975.986755,46.997166 991.275085,46.997017 1006.563354,46.997307 
	C1009.061829,46.997353 1011.571045,46.876083 1014.050537,47.093430 
	C1014.617920,47.143162 1015.082764,48.362946 1015.453613,49.449921 
z"/>
<path fill="#020202" opacity="1.000000" stroke="none" 
	d="
M2335.244141,140.232452 
	C2341.558105,114.723900 2347.767822,89.617218 2354.083984,64.079170 
	C2349.354248,64.079170 2345.071533,64.079170 2340.337402,64.079170 
	C2341.756348,58.208492 2343.070557,52.770603 2344.417236,47.197823 
	C2362.936768,47.197823 2381.212402,47.197823 2399.895508,47.197823 
	C2398.509521,52.857487 2397.154541,58.390942 2395.812744,63.870728 
	C2395.020996,63.999916 2394.539795,64.124931 2394.053223,64.150543 
	C2389.950684,64.366562 2384.780762,63.143402 2382.058594,65.186661 
	C2379.575195,67.050507 2379.707031,72.439507 2378.750977,76.290901 
	C2372.832520,100.136543 2366.933350,123.986984 2361.021973,147.834396 
	C2360.703613,149.119659 2360.333008,150.391968 2359.946533,151.817444 
	C2350.904541,151.817444 2341.962158,151.817444 2332.577637,151.817444 
	C2333.458496,147.972076 2334.298828,144.303207 2335.244141,140.232452 
z"/>
<path fill="#020202" opacity="1.000000" stroke="none" 
	d="
M1377.388428,64.336617 
	C1372.988403,64.200867 1369.017334,64.200867 1364.440674,64.200867 
	C1365.959717,58.266968 1367.342529,52.864834 1368.776611,47.262669 
	C1387.237061,47.262669 1405.473389,47.262669 1424.257935,47.262669 
	C1422.880737,52.918682 1421.532471,58.455963 1420.140869,64.170540 
	C1415.319580,64.170540 1410.847778,64.170540 1406.109375,64.170540 
	C1398.772461,93.471581 1391.483032,122.582306 1384.169556,151.789490 
	C1374.992798,151.789490 1366.090088,151.789490 1356.847046,151.789490 
	C1363.073120,126.536377 1369.253174,101.569122 1375.363647,76.584824 
	C1376.341431,72.586441 1377.007202,68.511757 1377.388428,64.336617 
z"/>
<path fill="#030303" opacity="1.000000" stroke="none" 
	d="
M1594.425049,136.411072 
	C1601.896240,106.540810 1609.210693,77.053352 1616.590210,47.303585 
	C1625.751343,47.303585 1634.798218,47.303585 1644.158325,47.303585 
	C1636.934937,76.263542 1629.757202,105.040161 1622.420654,134.453430 
	C1628.031250,134.453430 1632.948364,134.453430 1638.501099,134.453430 
	C1637.079224,140.494171 1635.802124,145.919861 1634.450806,151.660828 
	C1619.982910,151.660828 1605.577515,151.660828 1590.687378,151.660828 
	C1591.886841,146.681229 1593.077637,141.737564 1594.425049,136.411072 
z"/>
<path fill="#030303" opacity="1.000000" stroke="none" 
	d="
M1302.621216,140.650269 
	C1301.612549,144.587280 1300.740479,148.137634 1299.832520,151.833801 
	C1285.302612,151.833801 1270.835693,151.833801 1256.107666,151.833801 
	C1264.797241,116.877617 1273.446533,82.083351 1282.128052,47.159958 
	C1291.040527,47.159958 1299.842407,47.159958 1309.419678,47.159958 
	C1302.295288,76.107529 1295.222046,104.846962 1287.976807,134.285431 
	C1293.369507,134.285431 1298.518188,134.285431 1304.042480,134.285431 
	C1303.511108,136.757935 1303.134521,138.510773 1302.621216,140.650269 
z"/>
<path fill="#030303" opacity="1.000000" stroke="none" 
	d="
M1582.023438,140.145599 
	C1581.031128,144.245575 1580.103638,147.937408 1579.136841,151.784897 
	C1570.007202,151.784897 1561.079102,151.784897 1551.346558,151.784897 
	C1560.106323,116.883575 1568.807617,82.215157 1577.572266,47.294098 
	C1586.743652,47.294098 1595.794312,47.294098 1605.164917,47.294098 
	C1597.441040,78.234962 1589.764526,108.986214 1582.023438,140.145599 
z"/>
<path fill="#020202" opacity="1.000000" stroke="none" 
	d="
M1027.167236,144.337906 
	C1026.533813,146.991425 1025.986206,149.237946 1025.381836,151.717651 
	C1016.338684,151.717651 1007.414795,151.717651 997.886658,151.717651 
	C1006.597595,116.876900 1015.279602,82.151596 1024.008301,47.239479 
	C1033.104858,47.239479 1042.024658,47.239479 1051.641724,47.239479 
	C1043.473877,79.621819 1035.363525,111.776360 1027.167236,144.337906 
z"/>
<path fill="#020202" opacity="1.000000" stroke="none" 
	d="
M2429.477051,71.558846 
	C2422.758789,98.509377 2416.190186,125.074417 2409.584961,151.787659 
	C2400.405273,151.787659 2391.455078,151.787659 2381.950439,151.787659 
	C2390.669434,116.824028 2399.356689,81.986855 2408.053955,47.110939 
	C2417.156006,47.110939 2425.961670,47.110939 2435.539307,47.110939 
	C2433.527344,55.300064 2431.577148,63.236710 2429.477051,71.558846 
z"/>
<path fill="#FDFDFE" opacity="1.000000" stroke="none" 
	d="
M2360.511963,431.436737 
	C2370.235596,391.123596 2379.810547,351.197510 2389.390869,311.272705 
	C2390.592773,306.264191 2391.959229,301.290039 2392.983154,296.245880 
	C2393.532227,293.540222 2394.513184,292.124359 2397.553223,292.404572 
	C2401.856934,292.801178 2406.219238,292.627258 2410.505371,293.131866 
	C2418.153564,294.032166 2421.425049,297.638275 2420.113770,305.242676 
	C2417.999268,317.504486 2415.228760,329.667603 2412.350098,341.780853 
	C2395.943848,410.819611 2379.410889,479.828278 2362.952393,548.854675 
	C2359.911865,561.606934 2354.901123,565.798340 2341.746094,566.136353 
	C2337.436523,566.247070 2333.121826,566.153870 2328.267822,566.153870 
	C2339.059814,520.988159 2349.712402,476.406158 2360.511963,431.436737 
z"/>
<path fill="#FCFDFD" opacity="1.000000" stroke="none" 
	d="
M2089.805664,374.736420 
	C2096.311035,347.374329 2102.725830,320.419983 2109.291992,292.829651 
	C2115.650146,293.230408 2121.792725,293.308990 2127.846191,294.083221 
	C2134.291748,294.907562 2137.023682,297.877930 2135.983887,304.252014 
	C2134.170410,315.368774 2131.542969,326.362366 2128.996826,337.347443 
	C2125.847412,350.934662 2122.461914,364.467499 2119.125977,378.010895 
	C2115.527344,392.618744 2111.910400,395.692139 2096.882080,396.451721 
	C2092.952881,396.650360 2088.985352,396.095306 2084.657715,395.866455 
	C2086.414062,388.669769 2088.064453,381.906952 2089.805664,374.736420 
z"/>
<path fill="#FAFBFC" opacity="1.000000" stroke="none" 
	d="
M1823.542725,362.505981 
	C1826.559814,353.852936 1829.405396,345.552765 1832.250977,337.252594 
	C1832.588135,337.312469 1832.925293,337.372375 1833.262451,337.432281 
	C1826.488159,386.783844 1819.713989,436.135406 1812.918457,485.642090 
	C1802.272095,485.642090 1792.016479,485.642090 1781.188965,485.642090 
	C1795.328003,444.486450 1809.349731,403.672638 1823.542725,362.505981 
z"/>
<path fill="#FAFBFD" opacity="1.000000" stroke="none" 
	d="
M690.962830,465.986298 
	C689.990906,472.817657 689.062378,479.205109 688.120056,485.687256 
	C677.548950,485.687256 667.419434,485.687256 656.448486,485.687256 
	C673.437317,436.332825 690.293152,387.364807 707.148926,338.396820 
	C707.558167,338.498260 707.967346,338.599701 708.376587,338.701141 
	C702.586426,380.981567 696.796326,423.261963 690.962830,465.986298 
z"/>
<path fill="#F4F4F4" opacity="1.000000" stroke="none" 
	d="
M2228.877930,84.819984 
	C2227.875244,90.205765 2224.788574,91.496773 2219.730957,90.367943 
	C2221.993408,81.550110 2224.196533,72.963127 2226.380615,64.450806 
	C2233.138428,63.595642 2233.777832,64.272041 2232.300049,70.428093 
	C2231.180420,75.092079 2230.073486,79.759140 2228.877930,84.819984 
z"/>
<path fill="#F2F2F2" opacity="1.000000" stroke="none" 
	d="
M1751.335449,84.348373 
	C1749.726318,90.570915 1748.526123,91.338692 1742.163818,90.212975 
	C1744.384277,81.574989 1746.597900,72.963364 1748.789185,64.438812 
	C1755.443726,63.590759 1756.368286,64.460670 1754.988159,70.511581 
	C1753.957642,75.030037 1752.646606,79.484528 1751.335449,84.348373 
z"/>
<path fill="#F4F4F4" opacity="1.000000" stroke="none" 
	d="
M1452.925781,75.837830 
	C1453.914551,71.734009 1454.837402,68.037865 1455.741577,64.416031 
	C1462.228760,63.631702 1463.305786,64.681526 1461.954834,70.558914 
	C1460.839111,75.413239 1459.380493,80.192238 1458.367920,85.065758 
	C1457.393188,89.758133 1454.700317,91.441574 1449.265259,90.512291 
	C1450.480225,85.689880 1451.670166,80.967697 1452.925781,75.837830 
z"/>
<path fill="#F4F4F4" opacity="1.000000" stroke="none" 
	d="
M2010.125244,76.153534 
	C2009.353394,79.457352 2008.680176,82.358803 2007.940674,85.243233 
	C2006.649170,90.279816 2004.769165,91.340485 1998.964355,90.153870 
	C2001.088379,81.525688 2003.209717,72.908836 2005.307251,64.389000 
	C2012.278809,63.660362 2012.945068,64.417213 2011.373413,70.925491 
	C2010.985352,72.532677 2010.587524,74.137543 2010.125244,76.153534 
z"/>
<path fill="#F5F5F5" opacity="1.000000" stroke="none" 
	d="
M2146.623535,87.597717 
	C2148.290771,80.921829 2149.941650,74.663445 2151.317627,68.345207 
	C2152.252686,64.051422 2154.652344,63.009109 2159.183594,64.511566 
	C2158.978271,66.488770 2159.004639,68.606934 2158.513184,70.597153 
	C2153.701416,90.074158 2148.796631,109.528221 2143.935547,128.993073 
	C2143.101074,132.335129 2142.187744,136.118866 2137.779785,134.723602 
	C2136.717285,134.387192 2136.171875,129.899002 2136.668701,127.596306 
	C2138.661865,118.358986 2141.160156,109.230759 2143.467529,100.061203 
	C2144.479492,96.038544 2145.482666,92.013603 2146.623535,87.597717 
z"/>
<path fill="#F5F5F5" opacity="1.000000" stroke="none" 
	d="
M2461.049072,130.035690 
	C2460.795166,131.067551 2460.791748,132.051071 2460.377197,132.275635 
	C2458.531006,133.275620 2456.567383,134.058716 2454.646484,134.920074 
	C2454.207520,133.169815 2453.079346,131.260239 2453.441162,129.695099 
	C2455.910889,119.011490 2458.688965,108.399094 2461.377197,97.766022 
	C2463.820801,88.099541 2466.276367,78.436028 2468.726562,68.771202 
	C2468.970947,67.807266 2468.927002,66.295708 2469.517090,65.983322 
	C2471.257324,65.062004 2473.248779,64.615585 2475.142090,63.983383 
	C2475.501221,65.372177 2476.429688,66.897354 2476.134521,68.129410 
	C2471.217285,88.654007 2466.146484,109.141930 2461.049072,130.035690 
z"/>
<path fill="#F7F7F7" opacity="1.000000" stroke="none" 
	d="
M1936.066406,76.171219 
	C1931.715454,93.982208 1927.425415,111.386215 1923.139038,128.791092 
	C1922.940552,129.597107 1923.048462,130.735962 1922.543335,131.162155 
	C1920.835938,132.602264 1918.916260,133.790802 1917.077881,135.075592 
	C1916.460938,133.150299 1914.970947,131.021225 1915.365234,129.331924 
	C1918.534912,115.752098 1922.057251,102.254555 1925.477051,88.733170 
	C1927.227661,81.811661 1929.153320,74.928688 1930.673828,67.957176 
	C1931.403320,64.612480 1933.174072,63.332039 1936.274536,63.921032 
	C1940.272461,64.680489 1937.930420,67.589943 1937.755981,69.511375 
	C1937.563843,71.627548 1936.699341,73.682686 1936.066406,76.171219 
z"/>
<path fill="#F6F6F6" opacity="1.000000" stroke="none" 
	d="
M1070.964111,123.860947 
	C1075.355835,105.920433 1079.677856,88.386833 1084.029907,70.860649 
	C1084.466064,69.104004 1084.583130,66.804192 1085.747559,65.812469 
	C1087.130127,64.635078 1089.486328,64.601135 1091.420654,64.071686 
	C1091.708008,65.485413 1092.508667,67.021400 1092.205444,68.294449 
	C1087.752319,86.990479 1083.152832,105.651619 1078.585815,124.320511 
	C1077.995483,126.733826 1077.937500,129.511581 1076.632446,131.445206 
	C1075.494263,133.131470 1072.943726,133.864471 1071.017334,135.018646 
	C1070.522583,133.200012 1069.664062,131.386688 1069.637329,129.561249 
	C1069.611694,127.804008 1070.446411,126.034233 1070.964111,123.860947 
z"/>
<path fill="#F4F4F4" opacity="1.000000" stroke="none" 
	d="
M2080.774902,89.751602 
	C2078.271729,99.389771 2077.776611,99.948410 2072.011719,99.797691 
	C2071.728027,99.790283 2071.451172,99.525795 2070.718994,99.147453 
	C2073.541016,87.597359 2076.388184,75.943497 2079.198730,64.439293 
	C2086.206055,63.629112 2086.749756,64.219261 2085.283447,70.494034 
	C2083.813965,76.781509 2082.348877,83.069977 2080.774902,89.751602 
z"/>
<path fill="#F2F2F2" opacity="1.000000" stroke="none" 
	d="
M2287.530762,109.460205 
	C2290.792725,100.128563 2293.873535,91.152565 2296.954102,82.176567 
	C2297.433594,82.279945 2297.912842,82.383331 2298.392334,82.486710 
	C2296.878662,92.886436 2295.364990,103.286163 2293.830078,113.831383 
	C2291.232178,113.831383 2288.951172,113.831383 2286.238525,113.831383 
	C2286.625732,112.431870 2286.987549,111.123856 2287.530762,109.460205 
z"/>
<path fill="#F0F0F0" opacity="1.000000" stroke="none" 
	d="
M911.617554,102.696442 
	C910.961792,106.674057 910.405273,110.224106 909.832092,113.879913 
	C907.163208,113.879913 904.715759,113.879913 901.790222,113.879913 
	C905.619995,103.192833 909.355652,92.768463 913.091248,82.344086 
	C913.523804,82.427132 913.956360,82.510170 914.388916,82.593208 
	C913.498169,89.151764 912.607422,95.710320 911.617554,102.696442 
z"/>
<path fill="#F0F0F0" opacity="1.000000" stroke="none" 
	d="
M1222.723877,106.598999 
	C1225.596313,98.498474 1228.325562,90.761505 1231.054810,83.024536 
	C1231.510620,83.122459 1231.966431,83.220383 1232.422363,83.318298 
	C1231.050293,93.376389 1229.678345,103.434471 1228.272217,113.743134 
	C1225.623779,113.743134 1223.207764,113.743134 1220.220093,113.743134 
	C1221.026367,111.427307 1221.803589,109.194931 1222.723877,106.598999 
z"/>
<path fill="#F0F0F0" opacity="1.000000" stroke="none" 
	d="
M1517.531372,107.599037 
	C1520.802246,98.578735 1523.875122,89.915764 1526.947998,81.252785 
	C1527.351685,81.336960 1527.755371,81.421127 1528.158936,81.505302 
	C1526.597656,92.234337 1525.036499,102.963371 1523.454346,113.835327 
	C1520.694946,113.835327 1518.277222,113.835327 1515.532349,113.835327 
	C1516.185059,111.704575 1516.759155,109.830467 1517.531372,107.599037 
z"/>
</svg>